<svg width="112" height="113" viewBox="0 0 112 113" fill="none" xmlns="http://www.w3.org/2000/svg">
<path d="M65.2125 36.1911L65.2125 36.1911C68.5574 36.8475 71.3004 39.1306 72.5525 42.3007C73.8047 45.4708 73.3622 49.012 71.3688 51.7773L71.7744 52.0697L71.3688 51.7773L66.3258 58.7734C65.5513 59.8474 64.4771 60.6254 63.215 61.0262C61.9529 61.427 60.6263 61.4112 59.3746 60.9807C58.1225 60.5496 57.067 59.746 56.3187 58.6539C56.0548 58.2683 55.8381 57.8604 55.6709 57.437C55.3633 56.6583 55.22 55.822 55.2526 54.9643C55.3949 51.2348 53.97 47.5904 51.3394 44.9467L51.3394 44.9467L51.3354 44.9428L51.2683 44.8768C51.2681 44.8766 51.2679 44.8764 51.2677 44.8762C50.327 43.9444 49.725 42.7623 49.5253 41.4538C49.3255 40.1449 49.5469 38.837 50.1663 37.667C50.7869 36.4971 51.7446 35.5794 52.9397 35.01L52.7246 34.5586L52.9397 35.01C54.1346 34.4406 55.4508 34.2745 56.7494 34.5296L56.7495 34.5296L65.2125 36.1911Z" fill="#FFBD54" stroke="black"/>
<path d="M64.4359 32.1955L64.4362 32.1959C65.333 33.1723 66.6117 33.6902 68.0593 33.635L68.0593 33.635C69.4392 33.5825 70.8058 33.0065 71.9019 31.9985C72.997 30.9905 73.6851 29.6767 73.8531 28.3058L64.4359 32.1955ZM64.4359 32.1955C64.0685 31.7964 63.7898 31.3433 63.5974 30.8562C62.843 28.9462 63.4108 26.4762 65.2578 24.7754C67.59 22.6333 70.9327 22.6282 72.7231 24.5764L72.7234 24.5767M64.4359 32.1955L72.7234 24.5767M72.7234 24.5767C73.62 25.5506 74.0289 26.8681 73.8531 28.3057L72.7234 24.5767Z" fill="#FFBD54" stroke="black"/>
<path d="M81.4906 41.6042C78.0046 42.9811 74.2957 41.5818 73.1417 38.6601C71.9879 35.7389 73.7395 32.1831 77.2256 30.8061C80.7127 29.4288 84.422 30.8277 85.5758 33.7489C86.7297 36.6705 84.9777 40.2268 81.4906 41.6042Z" fill="#FFBD54" stroke="black"/>
<path d="M87.6815 48.9214C87.7603 50.3469 87.1976 51.723 86.067 52.799L86.0669 52.7991C84.9853 53.8287 83.5078 54.4524 81.9006 54.541L81.9005 54.541C79.1024 54.6957 76.6956 53.1753 75.8534 51.0431C75.6731 50.5866 75.5634 50.1005 75.5351 49.5924L75.5335 49.564C75.3941 46.7213 77.9171 44.162 81.3157 43.9739L81.3158 43.9739C82.9228 43.8847 84.4601 44.3413 85.6487 45.2452L85.6487 45.2452C86.8911 46.1899 87.6025 47.4956 87.6815 48.9214ZM87.6815 48.9214L88.1807 48.8938M87.6815 48.9214L88.1807 48.8938M88.1807 48.8938C88.2683 50.4768 87.6401 51.9922 86.4117 53.1612L88.1807 48.8938ZM85.9511 44.8475L85.9508 44.8479L85.9511 44.8475Z" fill="#FFBD54" stroke="black"/>
<path d="M80.2198 61.4968C80.8749 58.9473 79.0779 56.1508 76.0359 55.3378L80.2198 61.4968ZM80.2198 61.4968L80.2197 61.4968L80.2102 61.5326C79.5268 64.0889 76.5631 65.6349 73.5064 64.821L80.2198 61.4968ZM69.3322 58.6253L69.3321 58.6255C69.0811 59.5637 69.161 60.527 69.5127 61.4173C70.1272 62.973 71.5737 64.3034 73.5059 64.8208L69.3322 58.6253ZM69.3322 58.6253C70.0152 56.0696 72.9789 54.5232 76.0358 55.3377L69.3322 58.6253Z" fill="#FFBD54" stroke="black"/>
<path d="M3.81923 97.4041L4.28942 96.9319L15.6758 108.317L15.3986 108.592L12.3792 111.607C10.4446 113.546 6.32734 112.566 3.18059 109.424C0.0366716 106.276 -0.941708 102.16 0.992809 100.226L3.81426 97.4042H3.81923V97.4041Z" fill="#5A6E7F"/>
<path d="M7.0758 94.1938L18.4622 105.572L15.6759 108.317L4.28954 96.932L4.61484 96.6065L4.62396 96.6117L7.0758 94.1938Z" fill="#FFBD54"/>
<path d="M67.6357 0C92.138 0 112 19.867 112 44.3709C112 68.8738 92.138 88.7367 67.6357 88.7367C58.5515 88.7367 50.1192 86.0025 43.083 81.3189L18.4621 105.572L7.07571 94.1938L31.5358 70.1023C26.3488 62.8418 23.2652 53.9729 23.2652 44.3709C23.2653 19.867 43.1272 0 67.6357 0ZM67.029 75.5675C84.2562 75.5675 98.226 61.6016 98.226 44.3711C98.226 27.1392 84.2562 13.1745 67.029 13.1745C49.7977 13.1745 35.8309 27.1393 35.8309 44.3711C35.8309 61.6016 49.7977 75.5675 67.029 75.5675Z" fill="#333333"/>
</svg>
