<svg width="77" height="77" viewBox="0 0 77 77" fill="none" xmlns="http://www.w3.org/2000/svg">
<path d="M75.7173 1.28333V45.6369L74.4339 47.6572L75.7173 50.3805V60.3391L74.4339 62.1708L75.7173 63.6501V75.7167H44.9173L42.2491 74.7542L39.7839 75.7167H1.28394V1.28333H75.7173Z" fill="#3775A4"/>
<path d="M75.7168 45.637L74.9147 47.8427L75.7168 50.3805V60.3391L74.7542 61.969L75.7168 63.6508V70.5834L70.8497 73.4709C68.1489 74.9447 65.1212 75.7169 62.0444 75.7167H44.9168L42.1736 74.9146L39.7834 75.7167H37.2168L34.3918 71.4785C32.8869 69.2216 32.0837 66.5697 32.0834 63.8571V60.6375C32.0831 58.7386 31.641 56.8659 30.7921 55.1673L29.5168 52.6167L26.9501 43.6334L23.1001 38.5L16.6834 41.0667H12.1917C11.6812 41.0667 11.1916 40.8639 10.8306 40.5029C10.4696 40.1419 10.2667 39.6522 10.2667 39.1417C10.2667 38.6311 10.4696 38.1415 10.8306 37.7805C11.1916 37.4195 11.6812 37.2167 12.1917 37.2167H14.1167L21.8167 33.3667V30.8H6.41675V25.2737C6.41684 24.6662 6.63242 24.0784 7.02514 23.6148C7.41786 23.1513 7.96227 22.8422 8.56152 22.7423L14.1167 21.8167L16.6834 19.25L24.3834 16.6834L24.0658 15.7289C23.4416 13.8592 23.5013 11.8286 24.2342 9.99879L25.6667 6.41669L35.9334 23.1L39.8813 28.036C43.9678 33.1436 49.6938 36.682 56.0898 38.0525L60.0328 38.8979C62.7555 39.481 65.5732 39.4585 68.2863 38.8321L75.7168 37.1172V45.637Z" fill="#2A597C"/>
<path d="M38.5 44.9166L33.2507 39.6673L35.8408 37.1241L41.1227 42.406L38.6101 44.9717L38.5 44.9166Z" fill="#DBDBDB"/>
<path d="M38.5 44.9166L44.9167 50.05L47.4833 46.2L41.0667 42.35L38.5 44.9166Z" fill="#EBEBEB"/>
<path d="M75.7167 45.637V50.3805C68.0745 51.7665 59.2307 51.9574 51.643 50.9468L44.9167 50.05L47.4834 46.2L48.4154 46.3428C57.0763 47.6759 67.0591 47.432 75.7167 45.637Z" fill="#EBEBEB"/>
<path d="M45.2901 41.1483C42.5099 45.3187 40.6989 50.0587 39.9901 55.0205L39.7834 56.4667H43.6334L43.9703 55.6243C45.4487 51.9283 47.4637 48.4704 49.9503 45.362L50.2915 44.9356C50.6112 44.536 50.8257 44.0627 50.9156 43.5589C51.0055 43.0551 50.9678 42.5368 50.806 42.0513L50.7486 41.8793C50.5451 41.269 50.1548 40.7381 49.633 40.362C49.1111 39.9858 48.484 39.7833 47.8407 39.7833C47.336 39.7833 46.8392 39.9079 46.3942 40.146C45.9493 40.3841 45.57 40.7284 45.2901 41.1483Z" fill="#DBDBDB"/>
<path d="M75.7165 60.3391V63.6501C74.5309 65.3381 72.9889 66.7449 71.1996 67.7711C69.4102 68.7973 67.4173 69.4178 65.3616 69.5888C64.3221 69.6754 63.2848 69.7187 62.2496 69.7187C55.9683 69.7202 49.79 68.1237 44.2957 65.0794C44.0047 64.9113 43.7913 64.6356 43.7013 64.3117C43.6114 63.9878 43.6521 63.6416 43.8148 63.3474C43.9774 63.0532 44.249 62.8346 44.5711 62.7385C44.8932 62.6425 45.2401 62.6766 45.5374 62.8336C47.3794 63.8521 49.3102 64.701 51.3059 65.3698C52.0627 63.578 52.3573 61.6248 52.1626 59.6894L51.7888 55.9549C51.4722 52.7536 52.2725 49.5413 54.0539 46.8625L56.6815 42.9211C56.775 42.7808 56.8953 42.6603 57.0354 42.5665C57.1755 42.4726 57.3327 42.4073 57.4981 42.3743C57.6634 42.3412 57.8336 42.341 57.9991 42.3737C58.1645 42.4065 58.3218 42.4714 58.4621 42.565C58.6024 42.6585 58.7229 42.7788 58.8168 42.9189C58.9106 43.059 58.9759 43.2162 59.009 43.3815C59.042 43.5469 59.0422 43.7171 59.0095 43.8825C58.9768 44.0479 58.9118 44.2053 58.8183 44.3456L56.189 48.287C54.7369 50.471 54.0846 53.0899 54.3426 55.6999L54.7164 59.4344C54.944 61.6981 54.6226 63.9833 53.7796 66.0965C55.1743 66.4493 56.5899 66.7146 58.0178 66.8906C59.033 64.7 59.3441 62.2486 58.9081 59.8739L58.2263 56.1843C57.6441 53.0202 58.1746 49.7522 59.7278 46.9347L62.0202 42.7879C62.1884 42.4969 62.464 42.2835 62.7879 42.1936C63.1118 42.1036 63.458 42.1443 63.7522 42.307C64.0464 42.4696 64.265 42.7412 64.3611 43.0633C64.4572 43.3854 64.423 43.7324 64.266 44.0296L61.9753 48.1763C60.7086 50.4733 60.2756 53.1377 60.7497 55.7175L61.433 59.4071C61.9072 61.9945 61.6568 64.6627 60.7096 67.1167C62.1895 67.1824 63.6721 67.1535 65.1483 67.0301C65.3681 67.0125 65.5862 66.9868 65.8044 66.9563C66.612 64.6089 66.6508 62.0652 65.9151 59.6943L64.797 56.1106C63.8413 53.0387 63.9785 49.7308 65.1852 46.7486L66.9658 42.358C67.0939 42.0426 67.342 41.7909 67.6556 41.6584C67.9693 41.5258 68.3227 41.5233 68.6382 41.6514C68.9536 41.7795 69.2053 42.0276 69.3378 42.3412C69.4704 42.6548 69.4729 43.0083 69.3448 43.3237L67.5642 47.7127C66.5808 50.1446 66.4686 52.8418 67.2465 55.347L68.3646 58.9291C69.092 61.2696 69.2036 63.758 68.6887 66.1542C69.4654 65.8264 70.2035 65.4138 70.8896 64.9238C71.3866 64.5682 71.8538 64.1728 72.2868 63.7416C72.873 61.6644 72.8412 59.4613 72.1954 57.4019L71.111 53.9337C70.181 50.9472 70.32 47.7301 71.504 44.8349L72.72 41.8639C72.7838 41.708 72.8777 41.5661 72.9964 41.4464C73.1151 41.3267 73.2561 41.2315 73.4116 41.1664C73.567 41.1012 73.7338 41.0673 73.9023 41.0665C74.0709 41.0658 74.2379 41.0983 74.3939 41.1621C74.5499 41.226 74.6918 41.3199 74.8115 41.4386C74.9312 41.5572 75.0263 41.6983 75.0915 41.8537C75.1567 42.0092 75.1906 42.1759 75.1913 42.3445C75.192 42.513 75.1596 42.6801 75.0957 42.8361L73.8798 45.807C72.9209 48.1486 72.808 50.7511 73.5605 53.1669L74.645 56.6367C75.0198 57.8356 75.2282 59.0803 75.2642 60.3359C75.4139 60.3097 75.5672 60.3108 75.7165 60.3391Z" fill="#DBDBDB"/>
<path d="M34.6501 1.28333H37.2168V7.69999H34.6501V1.28333Z" fill="#2F638B"/>
<path d="M16.6833 1.28333H19.25V8.98332H16.6833V1.28333Z" fill="#2F638B"/>
<path d="M42.3501 1.28333H44.9168V5.13332H42.3501V1.28333Z" fill="#2F638B"/>
<path d="M50.05 1.28333H52.6167V7.69999H50.05V1.28333Z" fill="#2F638B"/>
<path d="M57.75 1.28333H60.3167V5.13332H57.75V1.28333Z" fill="#2F638B"/>
<path d="M66.7334 1.28333H69.3001V7.69999H66.7334V1.28333Z" fill="#2F638B"/>
<path d="M28.2334 71.8667H30.8001V75.5954H28.2334V71.8667Z" fill="#2F638B"/>
<path d="M20.5334 69.3H23.1001V75.5954H20.5334V69.3Z" fill="#2F638B"/>
<path d="M12.8335 71.8667H15.4002V75.5954H12.8335V71.8667Z" fill="#2F638B"/>
<path d="M1.40479 64.1667H5.13351V66.7334H1.40479V64.1667Z" fill="#2F638B"/>
<path d="M1.40479 56.4667H7.70018V59.0333H1.40479V56.4667Z" fill="#2F638B"/>
<path d="M1.40479 48.7667H5.13351V51.3333H1.40479V48.7667Z" fill="#2F638B"/>
<path d="M1.40479 8.98334H5.13351V11.55H1.40479V8.98334Z" fill="#2F638B"/>
<path d="M8.9834 1.28333H11.5501V5.13332H8.9834V1.28333Z" fill="#2F638B"/>
<path d="M51.3335 15.4H53.9002V17.9667H51.3335V15.4Z" fill="#2F638B"/>
<path d="M56.4668 15.4H66.7335V17.9667H56.4668V15.4Z" fill="#2F638B"/>
<path d="M51.3335 20.5333H61.6002V23.1H51.3335V20.5333Z" fill="#2F638B"/>
<path d="M64.1667 20.5333H66.7334V23.1H64.1667V20.5333Z" fill="#2F638B"/>
<path d="M39.7832 56.4667L37.2166 59.0333L39.7832 62.8833V75.7167H44.9166V62.8833L46.1999 59.0333L43.6332 56.4667H39.7832Z" fill="#EBEBEB"/>
<path d="M35.9334 37.2167L33.3667 39.7834L28.2334 35.9334L25.6667 30.8001L29.6339 27.7682L31.323 30.3012L35.9334 37.2167Z" fill="#EBEBEB"/>
<path d="M31.323 30.3012C30.9568 30.8494 30.461 31.2989 29.8795 31.6098C29.2981 31.9207 28.6489 32.0833 27.9896 32.0834H26.3084L25.6667 30.8001L29.6339 27.7682L31.323 30.3012Z" fill="#DADADA"/>
<path d="M27.9096 21.8167H22.6596C21.9855 21.8166 21.3179 21.9494 20.6951 22.2074C20.0723 22.4654 19.5064 22.8435 19.0297 23.3202L16.6833 25.6667L11.0055 26.4777C10.088 26.6088 9.24866 27.0664 8.64145 27.7665C8.03423 28.4666 7.69994 29.3623 7.69995 30.2891V30.8H27.6688C28.5631 30.8 29.4318 30.501 30.1368 29.9506C30.8417 29.4002 31.3424 28.63 31.5594 27.7623L31.8 26.7998C31.985 26.06 31.9552 25.2827 31.714 24.5591C31.4479 23.7606 30.9373 23.066 30.2545 22.5738C29.5717 22.0816 28.7513 21.8167 27.9096 21.8167Z" fill="#EBEBEB"/>
<path d="M12.1916 37.2167H14.1166L21.8166 33.3667V32.725C21.8166 31.8741 22.1546 31.058 22.7563 30.4564C23.358 29.8547 24.174 29.5167 25.0249 29.5167C25.4463 29.5167 25.8635 29.5996 26.2527 29.7609C26.642 29.9221 26.9956 30.1584 27.2936 30.4564C27.5915 30.7543 27.8278 31.108 27.989 31.4972C28.1503 31.8865 28.2333 32.3037 28.2333 32.725V36.4146L16.6833 41.0667H12.1916C11.6811 41.0667 11.1914 40.8639 10.8304 40.5028C10.4694 40.1418 10.2666 39.6522 10.2666 39.1417C10.2666 38.6311 10.4694 38.1415 10.8304 37.7805C11.1914 37.4195 11.6811 37.2167 12.1916 37.2167Z" fill="#DBDBDB"/>
<path d="M75.7167 0H1.28333C0.942972 0 0.616551 0.135208 0.37588 0.37588C0.135208 0.616551 0 0.942972 0 1.28333V75.7167C0 76.057 0.135208 76.3834 0.37588 76.6241C0.616551 76.8648 0.942972 77 1.28333 77H75.7167C76.057 77 76.3834 76.8648 76.6241 76.6241C76.8648 76.3834 77 76.057 77 75.7167V1.28333C77 0.942972 76.8648 0.616551 76.6241 0.37588C76.3834 0.135208 76.057 0 75.7167 0ZM38.5735 55.8616L36.3092 58.1259C36.0994 58.3356 35.9687 58.6116 35.9395 58.9069C35.9102 59.2021 35.9842 59.4984 36.1488 59.7453L38.5 63.2719V74.4333H37.9034L35.4588 70.7664C34.0925 68.7211 33.3643 66.3161 33.3667 63.8564V60.6375C33.3642 58.5398 32.8758 56.4713 31.9399 54.594L30.7179 52.1497L28.1833 43.2811C28.1403 43.1305 28.07 42.9892 27.976 42.864L24.932 38.8054L28.0654 37.4129L32.523 40.7561L37.5922 45.8253L37.5946 45.8274C37.6039 45.8367 37.6143 45.845 37.624 45.854C37.6472 45.8758 37.6705 45.8975 37.695 45.9172L37.6979 45.9199L40.3963 48.0769C39.6129 50.2691 39.0512 52.5343 38.7196 54.8386L38.5735 55.8616ZM29.4701 32.0833H30.1832L34.2137 37.1214L33.2464 38.0889L29.5167 35.2917V32.725C29.5165 32.5103 29.5009 32.2958 29.4701 32.0833ZM30.5544 26.4878L30.3138 27.4503C30.186 27.9648 29.9107 28.4308 29.5218 28.7911C29.1329 29.1513 28.6472 29.3901 28.1244 29.4782C27.2834 28.6725 26.1617 28.226 24.9971 28.2331C23.8325 28.2402 22.7164 28.7005 21.8853 29.5163H9.10397C9.25121 29.0563 9.52453 28.6467 9.89289 28.3342C10.2612 28.0217 10.7099 27.8187 11.1878 27.7484L16.8649 26.9368C17.1398 26.8975 17.3945 26.7702 17.5908 26.5738L19.9377 24.2269C20.6611 23.5078 21.6388 23.1029 22.6589 23.1H27.9093C28.3238 23.0996 28.7329 23.1938 29.1055 23.3754C29.478 23.5569 29.8043 23.8211 30.0594 24.1478C30.3144 24.4745 30.4916 24.8551 30.5774 25.2606C30.6632 25.6661 30.6553 26.0858 30.5544 26.4878ZM22.3906 34.5144C22.6038 34.4079 22.783 34.244 22.9083 34.0413C23.0336 33.8386 23.1 33.605 23.1 33.3667V32.725C23.1 32.2145 23.3028 31.7248 23.6638 31.3638C24.0248 31.0028 24.5145 30.8 25.025 30.8C25.5355 30.8 26.0252 31.0028 26.3862 31.3638C26.7472 31.7248 26.95 32.2145 26.95 32.725V35.0992L16.4106 39.7833H12.1917C12.0215 39.7833 11.8583 39.7157 11.7379 39.5954C11.6176 39.4751 11.55 39.3118 11.55 39.1417C11.55 38.9715 11.6176 38.8083 11.7379 38.6879C11.8583 38.5676 12.0215 38.5 12.1917 38.5H14.1167C14.3159 38.5 14.5124 38.4536 14.6906 38.3644L22.3906 34.5144ZM35.1816 39.7833L35.9333 39.0316L39.2517 42.35L38.5 43.1017L35.1816 39.7833ZM43.6997 62.4775C43.6559 62.6083 43.6335 62.7454 43.6333 62.8833V74.4333H41.0667V62.8833C41.0667 62.6299 40.9916 62.3822 40.8511 62.1714L38.868 59.197L40.3148 57.75H43.1019L44.7317 59.38L43.6997 62.4775ZM42.7793 55.1476L42.7648 55.1833H41.2635C41.9535 50.4197 43.6937 45.8689 46.3582 41.8602C46.5432 41.5827 46.8024 41.3626 47.1064 41.2251C47.4103 41.0876 47.7467 41.0382 48.0774 41.0824C48.408 41.1267 48.7196 41.2628 48.9767 41.4755C49.2338 41.6881 49.426 41.9686 49.5315 42.285L49.5888 42.4572C49.6835 42.7393 49.7058 43.0407 49.6536 43.3337C49.6013 43.6267 49.4763 43.9018 49.2899 44.1338L48.9486 44.5602C46.3827 47.7668 44.3037 51.3343 42.7788 55.1476H42.7793ZM40.4212 44.8103L41.2654 43.966L41.957 44.3812C41.7613 44.7795 41.572 45.1806 41.391 45.5861L40.4212 44.8103ZM49.6964 47.8229C50.8805 47.9808 52.0737 48.1094 53.266 48.21C53.0058 48.7162 52.7769 49.2378 52.5806 49.772C52.3269 49.7411 52.0709 49.7086 51.8127 49.6746L48.7142 49.2611C49.031 48.7748 49.3586 48.2954 49.6971 47.8229H49.6964ZM45.1616 56.1004C45.7714 54.5769 46.4761 53.0931 47.2716 51.6577L51.4745 52.2192C51.6219 52.2387 51.7685 52.2577 51.9145 52.2759C51.7092 53.4914 51.6668 54.7289 51.7884 55.9556L52.1619 59.6904C52.3565 61.6251 52.0621 63.5778 51.3057 65.3691C49.5484 64.7801 47.841 64.0513 46.2 63.1896V63.0919L47.4174 59.4395C47.4928 59.2134 47.5037 58.9708 47.449 58.7388C47.3942 58.5069 47.276 58.2947 47.1075 58.1262L45.1392 56.1579L45.1616 56.1004ZM74.4333 74.4333H71.7433L74.4333 72.837V74.4333ZM74.4333 69.8525L70.2144 72.355C67.7064 73.7166 64.8984 74.4309 62.0447 74.4333H46.2V66.061C51.2075 68.4698 56.6931 69.7199 62.2498 69.7185C63.2844 69.7185 64.3218 69.6754 65.3619 69.5891C68.8216 69.3032 72.053 67.7469 74.4333 65.2201V69.8525ZM54.7165 59.4344L54.3431 55.6997C54.2393 54.6497 54.2829 53.5903 54.4725 52.5523C55.6577 52.6611 56.8452 52.7437 58.0258 52.7957C57.9536 53.9288 58.0209 55.0664 58.2261 56.183L58.9085 59.8739C59.3444 62.2484 59.0332 64.6997 58.0177 66.8899C56.59 66.714 55.1748 66.4488 53.7803 66.0957C54.6225 63.9826 54.9436 61.6978 54.7165 59.4344ZM55.2329 50.0444C55.4831 49.4699 55.7807 48.9172 56.1226 48.3921C57.0767 48.4354 58.0368 48.4603 59.0027 48.4667C58.7701 49.045 58.5767 49.6383 58.4238 50.2425C57.3639 50.1998 56.2982 50.1349 55.2329 50.0449V50.0444ZM61.2428 52.8677C62.2258 52.8677 63.2125 52.8469 64.1967 52.8077C64.2623 53.9288 64.4639 55.0378 64.7971 56.1102L65.9147 59.6933C66.6511 62.0641 66.6124 64.6079 65.8042 66.9552C65.5867 66.986 65.3683 67.012 65.1489 67.0303C63.6723 67.1534 62.1894 67.1822 60.7092 67.1164C61.6575 64.6629 61.9078 61.9947 61.4324 59.4076L60.7498 55.717C60.5766 54.7766 60.5234 53.8179 60.5913 52.864C60.8085 52.866 61.0254 52.868 61.2428 52.868V52.8677ZM61.0732 50.2998C61.2728 49.6554 61.5296 49.0303 61.8406 48.4317C62.7779 48.4022 63.7201 48.3541 64.6672 48.2873C64.4913 48.926 64.3613 49.5765 64.2782 50.2337C63.2104 50.2796 62.1396 50.3027 61.0732 50.3001V50.2998ZM70.7054 52.2621C70.8046 52.8274 70.9402 53.3856 71.1113 53.9334L72.1957 57.4017C72.8408 59.4612 72.8727 61.6638 72.2876 63.7411C71.2544 64.7696 70.0324 65.5891 68.6887 66.1545C69.2043 63.7584 69.0928 61.2697 68.3649 58.9292L67.2475 55.3462C66.9766 54.4746 66.8124 53.5734 66.7584 52.6624C68.0741 52.5648 69.3942 52.4311 70.7054 52.2625V52.2621ZM66.8946 50.0782C67.0126 49.3836 67.1952 48.7016 67.44 48.0409C68.529 47.9233 69.6168 47.7815 70.7035 47.6157C70.5845 48.3034 70.5191 48.9993 70.5076 49.6971C69.3067 49.8541 68.0996 49.9834 66.8946 50.0786V50.0782ZM74.4341 55.9577L73.5616 53.1674C73.4314 52.7486 73.3268 52.3224 73.2483 51.8909C73.6417 51.8268 74.0369 51.7586 74.4341 51.6866V55.9577ZM74.4341 49.0785C73.9837 49.1629 73.5352 49.2422 73.0887 49.3166C73.1294 48.5841 73.2439 47.8576 73.4304 47.1481C73.7665 47.0839 74.1011 47.0176 74.4341 46.9493V49.0785ZM74.4341 41.1804C74.4208 41.1746 74.4085 41.1676 74.3948 41.1621C74.0799 41.0332 73.7266 41.0346 73.4127 41.1662C73.0988 41.2977 72.85 41.5485 72.721 41.8635L71.5048 44.8339C71.4972 44.8522 71.491 44.8708 71.4836 44.8891C70.5055 45.0559 69.5216 45.2024 68.5319 45.3285L69.3454 43.3232C69.4095 43.1669 69.4421 42.9995 69.4414 42.8305C69.4406 42.6616 69.4065 42.4945 69.341 42.3387C69.2755 42.183 69.1798 42.0417 69.0596 41.923C68.9394 41.8043 68.7969 41.7105 68.6403 41.6471C68.4838 41.5836 68.3162 41.5516 68.1473 41.553C67.9783 41.5544 67.8113 41.5892 67.6558 41.6553C67.5004 41.7214 67.3595 41.8176 67.2412 41.9383C67.123 42.059 67.0298 42.2018 66.9669 42.3587L65.6359 45.6385C64.8527 45.7061 64.0696 45.7609 63.2866 45.8028L64.2664 44.03C64.4228 43.7329 64.4565 43.3863 64.3603 43.0646C64.264 42.7428 64.0455 42.4717 63.7516 42.3092C63.4578 42.1468 63.1119 42.106 62.7883 42.1956C62.4647 42.2852 62.1891 42.4981 62.0206 42.7886L60.3022 45.8979C59.465 45.9073 58.6287 45.9023 57.7935 45.8829L58.8184 44.3456C59.005 44.0624 59.072 43.7168 59.0046 43.3844C58.9372 43.052 58.741 42.7598 58.4588 42.5716C58.1766 42.3834 57.8314 42.3146 57.4986 42.3803C57.1658 42.4459 56.8726 42.6405 56.6829 42.9217L54.7983 45.7478C53.6998 45.6756 52.6005 45.5779 51.5003 45.4545C51.8751 44.9029 52.1173 44.2721 52.2081 43.6114C52.2989 42.9507 52.2358 42.2779 52.0238 41.6456L51.9665 41.4735C51.709 40.7012 51.24 40.0166 50.6127 39.4978C49.9854 38.9789 49.225 38.6465 48.4181 38.5385C47.6112 38.4304 46.7902 38.551 46.0485 38.8866C45.3067 39.2222 44.6741 39.7592 44.2225 40.4365C43.8563 40.9858 43.5061 41.5459 43.172 42.1168L41.8628 41.3307L36.891 36.3589L31.8427 30.0486C32.2978 29.4646 32.6252 28.7915 32.8038 28.0729L33.0444 27.1125C33.24 26.332 33.255 25.5171 33.0884 24.7299C32.9218 23.9427 32.5778 23.2038 32.0827 22.5695C31.5876 21.9352 30.9544 21.4221 30.2312 21.0693C29.5081 20.7164 28.714 20.5331 27.9093 20.5333H22.6589C21.8161 20.531 20.9812 20.6959 20.2026 21.0185C19.424 21.341 18.7171 21.8147 18.1228 22.4123L16.0784 24.4568L10.8246 25.2079C9.61348 25.3832 8.50512 25.9862 7.7 26.9078V25.2743C7.69923 24.9703 7.80673 24.676 8.00323 24.444C8.19973 24.2121 8.4724 24.0576 8.77238 24.0084L14.3276 23.0827C14.5915 23.0386 14.835 22.9133 15.0241 22.7241L17.3765 20.3716L24.7892 17.9012C25.1121 17.7936 25.3789 17.5621 25.5311 17.2577C25.6833 16.9532 25.7084 16.6008 25.6007 16.278L25.2826 15.3235C24.7562 13.7416 24.8067 12.0245 25.4251 10.4763L25.9107 9.26214L34.8404 23.7728C34.868 23.8177 34.8983 23.8609 34.9312 23.9021L38.8799 28.8378C43.1551 34.1713 49.1375 37.8688 55.8199 39.3075L59.7631 40.1526C62.6703 40.7712 65.6775 40.7476 68.5746 40.0833L74.4333 38.7312L74.4341 41.1804ZM74.4341 36.0968L67.9987 37.5818C65.4681 38.1619 62.8414 38.1825 60.3021 37.6423L56.359 36.7973C50.255 35.4831 44.7902 32.1057 40.8849 27.2338L36.9857 22.3598L26.7596 5.7442C26.635 5.54167 26.4565 5.37775 26.2442 5.27071C26.0319 5.16368 25.794 5.11775 25.557 5.13805C25.3201 5.15835 25.0935 5.24407 24.9024 5.38566C24.7114 5.52725 24.5634 5.71914 24.4751 5.93991L23.0421 9.52265C22.2337 11.5462 22.1356 13.784 22.7639 15.8705L16.2775 18.0324C16.0885 18.0956 15.9168 18.2017 15.7759 18.3425L13.5 20.6184L8.35065 21.4766C7.45059 21.6241 6.63247 22.0873 6.04291 22.7832C5.45335 23.4791 5.1309 24.3622 5.13333 25.2743V30.8C5.13333 31.1404 5.26854 31.4668 5.50921 31.7075C5.74988 31.9481 6.07631 32.0833 6.41667 32.0833H20.5333V32.5736L13.8136 35.9333H12.1917C11.3408 35.9333 10.5247 36.2714 9.92303 36.873C9.32135 37.4747 8.98333 38.2908 8.98333 39.1417C8.98333 39.9926 9.32135 40.8086 9.92303 41.4103C10.5247 42.012 11.3408 42.35 12.1917 42.35H16.6833C16.7262 42.3499 16.769 42.3477 16.8117 42.3433C16.8253 42.3418 16.8389 42.3392 16.8526 42.3373C16.8813 42.3335 16.91 42.3296 16.9386 42.3237C16.9546 42.3205 16.9706 42.316 16.9867 42.3121C17.0123 42.3059 17.0379 42.2996 17.063 42.2918C17.0791 42.2865 17.0964 42.2804 17.1131 42.2744C17.1298 42.2685 17.1452 42.2643 17.1599 42.2584L22.6635 40.057L25.781 44.2139L28.2835 52.9694C28.3054 53.0457 28.3342 53.1198 28.3697 53.1908L29.6452 55.7414C30.403 57.2624 30.7983 58.9382 30.8 60.6375V63.8567C30.7972 66.8232 31.6754 69.7237 33.3232 72.1904L34.8188 74.4333H30.8V71.8667H28.2333V74.4333H23.1V69.3H20.5333V74.4333H15.4V71.8667H12.8333V74.4333H2.56667V66.7333H5.13333V64.1667H2.56667V59.0333H7.7V56.4667H2.56667V51.3333H5.13333V48.7667H2.56667V11.55H5.13333V8.98333H2.56667V2.56667H8.98333V5.13333H11.55V2.56667H16.6833V8.98333H19.25V2.56667H34.65V7.7H37.2167V2.56667H42.35V5.13333H44.9167V2.56667H50.05V7.7H52.6167V2.56667H57.75V5.13333H60.3167V2.56667H66.7333V7.7H69.3V2.56667H74.4333L74.4341 36.0968Z" fill="black"/>
<path d="M51.3333 15.4H53.8999V17.9667H51.3333V15.4Z" fill="black"/>
<path d="M56.4666 15.4H66.7332V17.9667H56.4666V15.4Z" fill="black"/>
<path d="M51.3333 20.5333H61.5999V23.1H51.3333V20.5333Z" fill="black"/>
<path d="M64.1667 20.5333H66.7334V23.1H64.1667V20.5333Z" fill="black"/>
</svg>
