<svg width="143" height="138" viewBox="0 0 143 138" fill="none" xmlns="http://www.w3.org/2000/svg">
<g opacity="0.05">
<path d="M85.0341 80.9799C84.9479 71.9945 80.3535 63.7782 72.7431 59.0021C65.1326 54.226 55.736 53.6619 47.6079 57.4924L28.0206 66.7213C24.7709 68.2522 22.1558 70.7364 20.4589 73.9028C18.7616 77.0699 18.1425 80.6224 18.6669 84.1781C19.194 87.7325 20.8162 90.9541 23.358 93.4947C25.8997 96.0352 29.1235 97.6546 32.6793 98.1786L32.918 98.2129C41.8268 99.5929 49.823 104.65 54.8874 112.116C56.194 114.041 57.8539 115.642 59.783 116.853C60.8318 117.511 61.9616 118.054 63.1564 118.472C66.5491 119.657 70.1556 119.716 73.5867 118.645C77.0159 117.573 79.9468 115.471 82.0617 112.565C84.1766 109.659 85.276 106.224 85.2422 102.631L85.0341 80.9799Z" fill="#949494"/>
<path d="M40.3883 52.9339C44.0425 53.6507 47.7684 52.6818 50.8797 50.2051C53.8408 47.8486 55.8962 44.3802 56.6669 40.4375C57.4357 36.4964 56.8371 32.5098 54.9819 29.211C53.0327 25.7464 49.9468 23.4448 46.2961 22.7331C38.9552 21.2955 31.6549 26.9005 30.021 35.2316C28.7279 41.8674 31.4159 48.2553 36.2734 51.3037C37.5137 52.0821 38.8956 52.6426 40.3883 52.9339Z" fill="#949494"/>
<path d="M67.1845 52.8892C74.5777 57.5289 84.8932 54.4509 90.1793 46.0278C95.4668 37.6025 93.7533 26.9736 86.3601 22.3338C78.9676 17.6945 68.6519 20.7743 63.3645 29.1996C58.0784 37.6228 59.7921 48.2499 67.1845 52.8892Z" fill="#949494"/>
<path d="M87.9853 71.1741L87.986 71.1745C88.8864 72.2657 89.9334 73.1742 91.0888 73.8993C96.4804 77.2829 104.198 76.6561 109.988 71.8834C113.321 69.1364 115.549 65.4179 116.26 61.4137C117.005 57.2222 116.022 53.2229 113.49 50.1517C110.957 47.08 107.218 45.3519 102.962 45.284C98.8953 45.219 94.8207 46.6971 91.4887 49.445C84.4587 55.2411 82.8871 64.9888 87.9853 71.1741Z" fill="#949494"/>
<path d="M117.34 87.1113L117.34 87.1079C114.605 80.142 105.955 76.9892 98.0559 80.0808C90.159 83.1779 85.9525 91.3641 88.678 98.328C89.6715 100.869 91.4526 102.903 93.6978 104.312C97.611 106.768 102.936 107.325 107.962 105.36C115.859 102.263 120.066 94.077 117.34 87.1113Z" fill="#949494"/>
</g>
</svg>
