<svg width="37" height="42" viewBox="0 0 37 42" fill="none" xmlns="http://www.w3.org/2000/svg">
<path d="M4.87641 16H7.47641V2.66H2.95641V4.9H4.87641V16Z" fill="#333333"/>
<path d="M35.6295 25.662H31.3175L30.2115 30.562C30.9255 30.128 31.5695 29.96 32.2275 29.96C32.6755 29.96 33.1935 30.002 33.6835 30.436C34.0755 30.786 34.2295 31.178 34.2295 31.724C34.2295 32.326 34.0055 32.802 33.7395 33.082C33.5155 33.32 33.0955 33.642 32.3115 33.642C31.8635 33.642 31.4155 33.558 30.9535 33.292C30.5195 33.068 30.2535 32.788 29.9875 32.452L29.3855 34.02C29.7215 34.342 30.1415 34.636 30.5195 34.818C31.2335 35.168 32.0315 35.21 32.5355 35.21C33.5435 35.21 34.3555 35 35.0975 34.258C35.7275 33.628 36.0495 32.816 36.0495 31.822C36.0495 31.262 35.9655 30.324 35.2235 29.582C34.6775 29.036 33.8235 28.644 32.8155 28.644C32.5775 28.644 32.3675 28.658 32.1855 28.7L32.5215 27.23H35.6295V25.662Z" fill="#949494"/>
<line x1="30.4015" y1="5.29792" x2="7.40155" y2="36.2979" stroke="#333333"/>
</svg>
