<svg width="112" height="113" viewBox="0 0 112 113" fill="none" xmlns="http://www.w3.org/2000/svg">
<path d="M65.2124 36.1911L65.2124 36.1911C68.5573 36.8475 71.3003 39.1306 72.5524 42.3007C73.8045 45.4708 73.3621 49.012 71.3686 51.7773L71.7742 52.0697L71.3686 51.7774L66.3257 58.7734C65.5512 59.8474 64.477 60.6254 63.2149 61.0262C61.9528 61.427 60.6262 61.4113 59.3745 60.9807C58.1223 60.5496 57.0669 59.746 56.3186 58.6539C56.0547 58.2683 55.838 57.8605 55.6708 57.437C55.3632 56.6583 55.2199 55.822 55.2525 54.9643C55.3948 51.2348 53.9699 47.5904 51.3392 44.9467L51.3393 44.9467L51.3353 44.9428L51.2681 44.8768C51.2679 44.8766 51.2677 44.8764 51.2675 44.8762C50.3269 43.9444 49.7248 42.7623 49.5251 41.4538C49.3254 40.1449 49.5468 38.837 50.1661 37.667C50.7868 36.4971 51.7445 35.5794 52.9396 35.01L52.7245 34.5586L52.9396 35.01C54.1345 34.4407 55.4507 34.2745 56.7493 34.5296L56.7493 34.5296L65.2124 36.1911Z" fill="#78C0DE" stroke="black"/>
<path d="M64.4359 32.1955L64.4362 32.1959C65.333 33.1723 66.6117 33.6902 68.0593 33.635L68.0593 33.635C69.4392 33.5825 70.8058 33.0065 71.9019 31.9985C72.997 30.9905 73.6851 29.6767 73.8531 28.3058L64.4359 32.1955ZM64.4359 32.1955C64.0685 31.7964 63.7898 31.3433 63.5974 30.8563C62.843 28.9462 63.4108 26.4762 65.2578 24.7754C67.59 22.6333 70.9327 22.6282 72.7231 24.5764L72.7234 24.5767M64.4359 32.1955L72.7234 24.5767M72.7234 24.5767C73.62 25.5506 74.0289 26.8681 73.8531 28.3057L72.7234 24.5767Z" fill="#78C0DE" stroke="black"/>
<path d="M81.4905 41.6041C78.0044 42.9811 74.2956 41.5817 73.1416 38.6601C71.9878 35.7388 73.7393 32.183 77.2255 30.8061C80.7126 29.4287 84.4218 30.8277 85.5757 33.7489C86.7296 36.6704 84.9776 40.2268 81.4905 41.6041Z" fill="#78C0DE" stroke="black"/>
<path d="M87.6815 48.9214C87.7603 50.3469 87.1976 51.723 86.067 52.799L86.0669 52.7991C84.9853 53.8287 83.5078 54.4524 81.9006 54.541L81.9005 54.541C79.1024 54.6957 76.6956 53.1753 75.8534 51.0431C75.6731 50.5866 75.5634 50.1006 75.5351 49.5924L75.5335 49.564C75.3941 46.7213 77.9171 44.1621 81.3157 43.9739L81.3158 43.9739C82.9228 43.8847 84.4601 44.3413 85.6487 45.2452L85.6487 45.2452C86.8911 46.1899 87.6025 47.4956 87.6815 48.9214ZM87.6815 48.9214L88.1807 48.8938M87.6815 48.9214L88.1807 48.8938M88.1807 48.8938C88.2683 50.4768 87.6401 51.9922 86.4117 53.1612L88.1807 48.8938ZM85.9511 44.8476L85.9508 44.8479L85.9511 44.8476Z" fill="#78C0DE" stroke="black"/>
<path d="M80.2196 61.4968C80.8748 58.9473 79.0778 56.1508 76.0358 55.3378L80.2196 61.4968ZM80.2196 61.4968L80.2196 61.4968L80.21 61.5327C79.5266 64.0889 76.563 65.635 73.5063 64.821L80.2196 61.4968ZM69.3321 58.6253L69.332 58.6255C69.081 59.5637 69.1609 60.5271 69.5125 61.4173C70.127 62.9731 71.5736 64.3035 73.5057 64.8208L69.3321 58.6253ZM69.3321 58.6253C70.015 56.0696 72.9788 54.5232 76.0357 55.3377L69.3321 58.6253Z" fill="#78C0DE" stroke="black"/>
<path d="M3.81923 97.4041L4.28942 96.9319L15.6758 108.317L15.3986 108.592L12.3792 111.607C10.4446 113.546 6.32734 112.566 3.18059 109.424C0.0366716 106.276 -0.941708 102.16 0.992809 100.226L3.81426 97.4043H3.81923V97.4041Z" fill="#5A6E7F"/>
<path d="M7.07556 94.1938L18.4619 105.572L15.6757 108.317L4.28929 96.9319L4.61459 96.6065L4.62372 96.6116L7.07556 94.1938Z" fill="#78C0DE"/>
<path d="M67.6357 0C92.138 0 112 19.867 112 44.3709C112 68.8738 92.138 88.7367 67.6357 88.7367C58.5515 88.7367 50.1192 86.0025 43.083 81.3189L18.4621 105.572L7.07571 94.1938L31.5358 70.1023C26.3488 62.8418 23.2652 53.9729 23.2652 44.3709C23.2653 19.867 43.1272 0 67.6357 0ZM67.029 75.5675C84.2562 75.5675 98.226 61.6016 98.226 44.3711C98.226 27.1392 84.2562 13.1745 67.029 13.1745C49.7977 13.1745 35.8309 27.1393 35.8309 44.3711C35.8309 61.6016 49.7977 75.5675 67.029 75.5675Z" fill="#333333"/>
</svg>
