<svg width="850" height="648" viewBox="0 0 850 648" fill="none" xmlns="http://www.w3.org/2000/svg">
<g opacity="0.1">
<path d="M146.514 122.568C144.506 107.592 135.138 94.8415 121.454 88.4607C107.77 82.0799 91.981 83.1004 79.2195 91.189L48.4662 110.678C43.364 113.911 39.5179 118.602 37.3448 124.24C35.1712 129.879 34.8759 135.936 36.4883 141.76C38.105 147.581 41.4791 152.618 46.2455 156.327C51.012 160.035 56.7247 162.064 62.764 162.197L63.1692 162.204C78.314 162.647 92.6998 169.416 102.696 180.816C105.274 183.757 108.375 186.081 111.844 187.699C113.729 188.578 115.727 189.248 117.806 189.696C123.71 190.965 129.738 190.312 135.238 187.808C140.735 185.304 145.187 181.183 148.111 175.893C151.035 170.602 152.156 164.641 151.354 158.652L146.514 122.568Z" fill="white"/>
<path d="M66.7931 84.5339C73.0069 84.9684 78.9899 82.5912 83.6399 77.8393C88.0656 73.3179 90.7572 67.1387 91.2183 60.438C91.6764 53.7406 89.8557 47.2499 86.092 42.1599C82.1379 36.8143 76.5386 33.6332 70.3318 33.2065C57.8495 32.3377 46.8959 43.1452 45.9129 57.3052C45.1437 68.5818 50.9305 78.625 59.6253 82.6793C61.8454 83.7145 64.2553 84.359 66.7931 84.5339Z" fill="white"/>
<path d="M111.174 78.728C124.596 84.9868 141.173 77.9474 148.126 63.0358C155.081 48.1204 149.819 30.8944 136.396 24.6356C122.975 18.3774 106.398 25.4198 99.4433 40.3351C92.4901 55.2467 97.7523 72.4697 111.174 78.728Z" fill="white"/>
<path d="M149.33 105.17L149.331 105.171C151.043 106.799 152.963 108.091 155.025 109.053C164.652 113.542 177.34 110.825 186.001 101.596C190.988 96.2842 193.945 89.5879 194.328 82.7419C194.73 75.5756 192.299 69.1046 187.483 64.5195C182.666 59.9338 176.114 57.8545 169.033 58.6617C162.269 59.4328 155.799 62.7844 150.814 68.0975C140.298 79.3047 139.632 95.9355 149.33 105.17Z" fill="white"/>
<path d="M201.84 125.413L201.838 125.407C195.822 114.422 180.782 110.954 168.306 117.679C155.836 124.412 150.573 138.827 156.573 149.811C158.76 153.818 162.15 156.827 166.179 158.705C173.201 161.98 182.168 161.823 190.107 157.548C202.576 150.814 207.84 136.399 201.84 125.413Z" fill="white"/>
</g>
<g opacity="0.1">
<path d="M363.709 125.411C366.794 135.116 374.504 142.483 384.334 145.117C394.164 147.751 404.524 145.226 412.048 138.363L430.18 121.828C433.188 119.085 435.192 115.521 435.975 111.525C436.758 107.527 436.245 103.472 434.493 99.7956C432.739 96.121 429.91 93.1726 426.312 91.2687C422.714 89.3649 418.685 88.6866 414.661 89.3057L414.391 89.3482C404.286 90.8266 393.946 88.0172 385.977 81.6199C383.921 79.9699 381.591 78.7898 379.099 78.1222C377.744 77.7592 376.34 77.548 374.908 77.4941C370.84 77.3431 366.916 78.482 363.558 80.7878C360.203 83.0932 357.73 86.3492 356.408 90.203C355.086 94.0569 355.04 98.1445 356.273 102.026L363.709 125.411Z" fill="white"/>
<path d="M421.075 141.326C416.9 141.765 413.207 144.043 410.676 147.742C408.268 151.261 407.205 155.677 407.683 160.179C408.163 164.678 410.131 168.773 413.224 171.711C416.475 174.796 420.563 176.253 424.733 175.809C433.12 174.925 439.126 166.47 438.121 156.956C437.312 149.381 432.296 143.392 426.05 141.718C424.455 141.291 422.78 141.145 421.075 141.326Z" fill="white"/>
<path d="M392.297 150.374C382.655 147.79 372.476 154.403 369.606 165.114C366.735 175.828 372.244 186.646 381.885 189.23C391.526 191.813 401.705 185.199 404.576 174.485C407.446 163.773 401.938 152.957 392.297 150.374Z" fill="white"/>
<path d="M363.876 137.288L363.875 137.288C362.548 136.407 361.123 135.774 359.641 135.377C352.726 133.524 344.623 136.813 339.954 143.952C337.265 148.061 336.086 152.852 336.633 157.441C337.205 162.245 339.576 166.255 343.309 168.735C347.043 171.215 351.635 171.829 356.241 170.464C360.64 169.161 364.543 166.179 367.229 162.069C372.898 153.399 371.394 142.283 363.876 137.288Z" fill="white"/>
<path d="M326.653 129.997L326.655 130.001C331.934 136.588 342.323 137.13 349.817 131.206C357.306 125.278 359.112 115.093 353.844 108.505C351.923 106.101 349.321 104.501 346.427 103.726C341.383 102.374 335.449 103.527 330.68 107.294C323.192 113.223 321.385 123.407 326.653 129.997Z" fill="white"/>
</g>
<g opacity="0.1">
<path d="M42.3897 403.037C41.7385 388.901 34.0394 376.239 21.7929 369.169C9.54646 362.098 -5.26829 361.762 -17.8352 368.266L-48.1194 383.939C-53.1437 386.539 -57.1152 390.602 -59.6029 395.685C-62.0913 400.768 -62.8613 406.396 -61.8324 411.961C-60.7992 417.524 -58.0623 422.499 -53.918 426.348C-49.7736 430.198 -44.6092 432.557 -38.9853 433.174L-38.6079 433.214C-24.5137 434.863 -11.6443 442.353 -3.24888 453.806C-1.08287 456.76 1.62031 459.182 4.72452 460.974C6.41221 461.949 8.22074 462.737 10.1243 463.325C15.5295 464.99 21.2064 464.873 26.5426 462.986C31.8759 461.098 36.366 457.617 39.5263 452.92C42.6866 448.222 44.2189 442.753 43.9595 437.099L42.3897 403.037Z" fill="white"/>
<path d="M-28.8863 361.043C-23.1242 361.955 -17.348 360.226 -12.6215 356.172C-8.12324 352.315 -5.10746 346.769 -4.13023 340.555C-3.15605 334.344 -4.32485 328.139 -7.42091 323.083C-10.6737 317.772 -15.6382 314.347 -21.3944 313.442C-32.9696 311.613 -44.0716 320.802 -46.1448 333.933C-47.7831 344.392 -43.2038 354.234 -35.4226 358.727C-33.4357 359.874 -31.2398 360.672 -28.8863 361.043Z" fill="white"/>
<path d="M12.9955 359.249C25.0079 366.184 41.0492 360.97 48.754 347.625C56.4606 334.276 52.9571 317.775 40.9448 310.839C28.9335 303.905 12.8921 309.122 5.1854 322.47C-2.51935 335.815 0.984296 352.314 12.9955 359.249Z" fill="white"/>
<path d="M46.4354 387.034L46.4365 387.035C47.9012 388.694 49.5866 390.056 51.4327 391.122C60.0476 396.096 72.1073 394.597 80.9418 386.694C86.0281 382.145 89.3341 376.138 90.2501 369.782C91.2102 363.129 89.4708 356.893 85.3517 352.222C81.2315 347.55 75.2881 345.075 68.6158 345.25C62.2419 345.417 55.9314 348.016 50.8473 352.567C40.1205 362.164 38.1414 377.627 46.4354 387.034Z" fill="white"/>
<path d="M93.7775 410.208L93.7761 410.202C89.06 399.462 75.31 394.999 63.1213 400.254C50.9366 405.518 44.8495 418.538 49.5508 429.276C51.2645 433.193 54.1815 436.277 57.7871 438.359C64.0714 441.987 72.4506 442.573 80.2068 439.232C92.3904 433.968 98.4785 420.948 93.7775 410.208Z" fill="white"/>
</g>
<g opacity="0.1">
<path d="M852.926 540.411C843.24 535.398 831.823 535.658 822.385 541.107C812.947 546.556 807.014 556.314 806.513 567.207L805.303 593.459C805.102 597.814 806.284 602.03 808.718 605.649C811.152 609.269 814.611 611.951 818.721 613.409C822.832 614.863 827.207 614.953 831.373 613.67C835.54 612.388 839.104 609.85 841.683 606.334L841.855 606.098C848.387 597.327 858.345 591.624 869.223 590.433C872.03 590.126 874.688 589.255 877.08 587.874C878.381 587.123 879.604 586.22 880.729 585.176C883.924 582.21 886.033 578.376 886.83 574.087C887.625 569.801 887.032 565.463 885.115 561.543C883.197 557.624 880.137 554.494 876.264 552.488L852.926 540.411Z" fill="white"/>
<path d="M797.433 571.8C800.263 568.306 801.334 563.785 800.45 559.068C799.609 554.579 797.07 550.43 793.299 547.383C789.529 544.34 784.937 542.729 780.37 542.847C775.572 542.972 771.373 544.965 768.551 548.458C762.87 555.479 764.725 566.429 772.69 572.873C779.039 577.996 787.372 578.732 793.369 575.27C794.9 574.386 796.279 573.228 797.433 571.8Z" fill="white"/>
<path d="M812.375 543.156C821.632 537.811 824.333 525.095 818.395 514.811C812.456 504.524 800.093 500.504 790.835 505.848C781.579 511.193 778.88 523.909 784.819 534.196C790.757 544.481 803.118 548.5 812.375 543.156Z" fill="white"/>
<path d="M843.804 531.545L843.805 531.544C845.477 531.206 847.036 530.606 848.458 529.785C855.097 525.952 858.744 517.325 856.873 508.383C855.797 503.236 853.062 498.715 849.173 495.655C845.103 492.45 840.27 491.208 835.566 492.157C830.86 493.107 826.918 496.12 824.464 500.641C822.119 504.959 821.422 510.172 822.5 515.319C824.773 526.176 834.33 533.455 843.804 531.545Z" fill="white"/>
<path d="M877.513 508.878L877.509 508.877C868.523 507.886 860.246 515.343 859.057 525.503C857.875 535.664 864.219 544.743 873.197 545.743C876.472 546.109 879.654 545.35 882.433 543.746C887.276 540.95 890.896 535.583 891.655 529.119C892.836 518.959 886.492 509.879 877.513 508.878Z" fill="white"/>
</g>
<g opacity="0.1">
<path d="M824.729 57.521C815.874 51.082 804.504 49.6137 794.313 53.5949C784.123 57.5761 776.759 66.3634 774.615 77.0994L769.446 102.97C768.589 107.262 769.124 111.625 770.992 115.585C772.861 119.545 775.888 122.73 779.748 124.798C783.608 126.863 787.936 127.614 792.265 126.971C796.593 126.327 800.515 124.348 803.605 121.248L803.812 121.039C811.621 113.322 822.366 109.167 833.342 109.631C836.174 109.75 838.944 109.287 841.527 108.278C842.931 107.73 844.282 107.018 845.557 106.152C849.175 103.692 851.848 100.205 853.287 96.0693C854.724 91.9351 854.792 87.54 853.481 83.3604C852.171 79.1808 849.607 75.6114 846.066 73.0357L824.729 57.521Z" fill="white"/>
<path d="M764.909 80.2844C768.245 77.2444 769.992 72.9189 769.828 68.1041C769.672 63.5223 767.779 59.0201 764.497 55.4263C761.215 51.8356 756.902 49.5429 752.351 48.9696C747.571 48.3681 743.102 49.7119 739.773 52.7521C733.073 58.8608 733.259 70.0093 740.19 77.6084C745.717 83.6529 753.876 85.6436 760.351 83.114C762.004 82.4681 763.548 81.5272 764.909 80.2844Z" fill="white"/>
<path d="M784.068 54.1151C794.064 50.21 798.667 37.9986 794.328 26.8939C789.989 15.7865 778.327 9.92745 768.331 13.8325C758.336 17.7372 753.735 29.9501 758.074 41.0575C762.412 52.1622 774.073 58.0198 784.068 54.1151Z" fill="white"/>
<path d="M817.016 47.3421L817.017 47.3417C818.727 47.259 820.365 46.899 821.901 46.2989C829.069 43.4983 833.993 35.4881 833.488 26.331C833.198 21.0595 831.167 16.1592 827.77 12.5338C824.214 8.73802 819.606 6.77491 814.794 7.00574C809.98 7.23692 805.612 9.63138 802.493 13.747C799.513 17.6785 798.033 22.747 798.325 28.0177C798.939 39.137 807.324 47.8059 817.016 47.3421Z" fill="white"/>
<path d="M853.898 29.9421L853.894 29.9405C845.126 27.5986 835.784 33.7481 833.068 43.652C830.359 53.5574 835.283 63.5277 844.042 65.8772C847.237 66.7353 850.51 66.4634 853.51 65.2912C858.74 63.2483 863.143 58.4693 864.874 52.1689C867.582 42.2638 862.659 32.2932 853.898 29.9421Z" fill="white"/>
</g>
<g opacity="0.1">
<path d="M395.426 600.837C382.952 594.381 368.247 594.716 356.092 601.734C343.936 608.752 336.294 621.319 335.649 635.35L334.092 669.16C333.833 674.769 335.354 680.199 338.489 684.86C341.624 689.522 346.079 692.977 351.373 694.854C356.668 696.727 362.303 696.844 367.669 695.191C373.034 693.539 377.625 690.271 380.946 685.743L381.168 685.438C389.581 674.142 402.406 666.796 416.417 665.264C420.031 664.868 423.455 663.746 426.536 661.967C428.211 661 429.786 659.837 431.236 658.492C435.35 654.672 438.067 649.734 439.093 644.211C440.117 638.69 439.353 633.102 436.884 628.055C434.415 623.007 430.473 618.975 425.485 616.392L395.426 600.837Z" fill="white"/>
<path d="M323.955 641.264C327.599 636.764 328.979 630.941 327.84 624.866C326.757 619.085 323.486 613.741 318.63 609.817C313.774 605.897 307.861 603.822 301.978 603.974C295.799 604.135 290.391 606.702 286.756 611.201C279.439 620.243 281.828 634.347 292.087 642.646C300.264 649.244 310.997 650.193 318.721 645.734C320.693 644.595 322.468 643.104 323.955 641.264Z" fill="white"/>
<path d="M343.199 604.372C355.122 597.488 358.601 581.112 350.953 567.866C343.304 554.617 327.38 549.439 315.457 556.322C303.535 563.206 300.059 579.584 307.708 592.833C315.356 606.079 331.277 611.255 343.199 604.372Z" fill="white"/>
<path d="M383.678 589.418L383.679 589.417C385.833 588.982 387.84 588.209 389.672 587.151C398.223 582.214 402.92 571.104 400.51 559.587C399.124 552.958 395.602 547.135 390.593 543.193C385.35 539.066 379.127 537.466 373.067 538.689C367.007 539.912 361.929 543.793 358.769 549.615C355.749 555.177 354.851 561.891 356.239 568.52C359.166 582.503 371.475 591.878 383.678 589.418Z" fill="white"/>
<path d="M427.093 560.224L427.088 560.223C415.515 558.947 404.854 568.551 403.323 581.637C401.801 594.723 409.972 606.417 421.535 607.705C425.753 608.176 429.851 607.199 433.43 605.132C439.667 601.531 444.329 594.619 445.307 586.294C446.828 573.208 438.658 561.514 427.093 560.224Z" fill="white"/>
</g>
</svg>
