<svg width="68" height="77" viewBox="0 0 68 77" fill="none" xmlns="http://www.w3.org/2000/svg">
<path d="M51.5217 41.8385V35.5007H33.776V41.8385C32.4313 41.8385 31.1417 42.3727 30.1908 43.3235C29.24 44.2744 28.7058 45.564 28.7058 46.9087V69.7246C28.7058 71.0693 29.24 72.359 30.1908 73.3098C31.1417 74.2607 32.4313 74.7948 33.776 74.7948H51.5217C52.8664 74.7948 54.1561 74.2607 55.1069 73.3098C56.0578 72.359 56.5919 71.0693 56.5919 69.7246V46.9087C56.5919 45.564 56.0578 44.2744 55.1069 43.3235C54.1561 42.3727 52.8664 41.8385 51.5217 41.8385Z" fill="#6B9777"/>
<path d="M56.592 25.3604V32.9657C56.592 33.638 56.3249 34.2828 55.8494 34.7583C55.374 35.2337 54.7292 35.5008 54.0569 35.5008H31.2409C30.9079 35.5013 30.578 35.4361 30.2701 35.3089C29.9623 35.1817 29.6826 34.995 29.4471 34.7595C29.2116 34.5239 29.0249 34.2443 28.8977 33.9364C28.7705 33.6286 28.7053 33.2987 28.7058 32.9657V25.3604C28.7058 24.688 28.9729 24.0432 29.4483 23.5678C29.9238 23.0923 30.5686 22.8253 31.2409 22.8253H54.0569C54.7292 22.8253 55.374 23.0923 55.8494 23.5678C56.3249 24.0432 56.592 24.688 56.592 25.3604Z" fill="#CBCBCB"/>
<path d="M28.7058 49.4438H56.5919V67.1896H28.7058V49.4438Z" fill="#E4E4E2"/>
<path d="M44.5504 59.5842H40.7478C39.6977 59.5842 38.8464 60.4355 38.8464 61.4856C38.8464 62.5356 39.6977 63.3869 40.7478 63.3869H44.5504C45.6005 63.3869 46.4517 62.5356 46.4517 61.4856C46.4517 60.4355 45.6005 59.5842 44.5504 59.5842Z" fill="#6B9777"/>
<path d="M42.6491 57.0491C42.313 57.0491 41.9906 56.9156 41.7528 56.6779C41.5151 56.4401 41.3816 56.1177 41.3816 55.7816V54.514C41.3816 54.1778 41.5151 53.8554 41.7528 53.6177C41.9906 53.38 42.313 53.2465 42.6491 53.2465C42.9853 53.2465 43.3077 53.38 43.5454 53.6177C43.7832 53.8554 43.9167 54.1778 43.9167 54.514V55.7816C43.9167 56.1177 43.7832 56.4401 43.5454 56.6779C43.3077 56.9156 42.9853 57.0491 42.6491 57.0491Z" fill="#6B9777"/>
<path d="M38.8464 58.3167C38.5102 58.3167 38.1878 58.1831 37.9501 57.9454C37.7124 57.7077 37.5789 57.3853 37.5789 57.0491V55.7816C37.5789 55.4454 37.7124 55.123 37.9501 54.8853C38.1878 54.6476 38.5102 54.514 38.8464 54.514C39.1826 54.514 39.505 54.6476 39.7427 54.8853C39.9804 55.123 40.114 55.4454 40.114 55.7816V57.0491C40.114 57.3853 39.9804 57.7077 39.7427 57.9454C39.505 58.1831 39.1826 58.3167 38.8464 58.3167Z" fill="#6B9777"/>
<path d="M46.4516 58.3167C46.1155 58.3167 45.7931 58.1831 45.5553 57.9454C45.3176 57.7077 45.1841 57.3853 45.1841 57.0491V55.7816C45.1841 55.4454 45.3176 55.123 45.5553 54.8853C45.7931 54.6476 46.1155 54.514 46.4516 54.514C46.7878 54.514 47.1102 54.6476 47.3479 54.8853C47.5856 55.123 47.7192 55.4454 47.7192 55.7816V57.0491C47.7192 57.3853 47.5856 57.7077 47.3479 57.9454C47.1102 58.1831 46.7878 58.3167 46.4516 58.3167Z" fill="#6B9777"/>
<path d="M1.26673 76.0641C1.05115 76.064 0.83917 76.0089 0.65083 75.904C0.46249 75.7991 0.304012 75.6479 0.190382 75.4647C0.0767508 75.2815 0.0117217 75.0724 0.00144208 74.857C-0.00883752 74.6417 0.0359722 74.4273 0.131635 74.2341L8.00139 58.3287C8.07418 58.1778 8.17615 58.0429 8.30142 57.9317C8.42668 57.8204 8.57275 57.7351 8.73118 57.6807C8.88961 57.6263 9.05726 57.6038 9.22443 57.6146C9.39161 57.6253 9.55499 57.6691 9.70513 57.7434C9.85528 57.8177 9.98921 57.921 10.0992 58.0474C10.2092 58.1737 10.293 58.3206 10.3458 58.4796C10.3987 58.6386 10.4195 58.8064 10.4071 58.9735C10.3947 59.1405 10.3493 59.3035 10.2735 59.4529L2.4042 75.3584C2.29934 75.5705 2.13723 75.749 1.93622 75.8737C1.7352 75.9984 1.50329 76.0644 1.26673 76.0641Z" fill="#C3C3C3"/>
<path d="M56.5921 26.6279V29.163H47.7192C47.383 29.163 47.0606 29.0295 46.8229 28.7918C46.5852 28.5541 46.4517 28.2317 46.4517 27.8955C46.4517 27.5593 46.5852 27.2369 46.8229 26.9992C47.0606 26.7615 47.383 26.6279 47.7192 26.6279H56.5921Z" fill="#E4E4E2"/>
<path d="M42.6488 29.163H40.1137C39.7776 29.163 39.4552 29.0295 39.2174 28.7918C38.9797 28.5541 38.8462 28.2317 38.8462 27.8955C38.8462 27.5593 38.9797 27.2369 39.2174 26.9992C39.4552 26.7615 39.7776 26.6279 40.1137 26.6279H42.6488C42.985 26.6279 43.3074 26.7615 43.5451 26.9992C43.7829 27.2369 43.9164 27.5593 43.9164 27.8955C43.9164 28.2317 43.7829 28.5541 43.5451 28.7918C43.3074 29.0295 42.985 29.163 42.6488 29.163Z" fill="#E4E4E2"/>
<path d="M64.1972 54.5141V49.4438H54.0568V54.5141C53.3845 54.5141 52.7397 54.7811 52.2642 55.2566C51.7888 55.732 51.5217 56.3768 51.5217 57.0492V72.2598C51.5217 72.9321 51.7888 73.5769 52.2642 74.0524C52.7397 74.5278 53.3845 74.7949 54.0568 74.7949H64.1972C64.8696 74.7949 65.5144 74.5278 65.9898 74.0524C66.4653 73.5769 66.7323 72.9321 66.7323 72.2598V57.0492C66.7323 56.3768 66.4653 55.732 65.9898 55.2566C65.5144 54.7811 64.8696 54.5141 64.1972 54.5141Z" fill="#A45E14"/>
<path d="M65.7817 41.8385H52.4724C51.9474 41.8385 51.5217 42.2641 51.5217 42.7892V48.4931C51.5217 49.0182 51.9474 49.4438 52.4724 49.4438H65.7817C66.3067 49.4438 66.7323 49.0182 66.7323 48.4931V42.7892C66.7323 42.2641 66.3067 41.8385 65.7817 41.8385Z" fill="#A8A8A8"/>
<path d="M51.5217 59.5842H66.7323V69.7246H51.5217V59.5842Z" fill="#F3AF3E"/>
<path d="M66.7323 63.387V65.9221H62.9297C62.5935 65.9221 62.2711 65.7885 62.0334 65.5508C61.7957 65.3131 61.6621 64.9907 61.6621 64.6545C61.6621 64.3183 61.7957 63.9959 62.0334 63.7582C62.2711 63.5205 62.5935 63.387 62.9297 63.387H66.7323Z" fill="#EA9D2D"/>
<path d="M57.8596 65.9221H56.592C56.2558 65.9221 55.9334 65.7885 55.6957 65.5508C55.458 65.3131 55.3245 64.9907 55.3245 64.6545C55.3245 64.3183 55.458 63.9959 55.6957 63.7582C55.9334 63.5205 56.2558 63.387 56.592 63.387H57.8596C58.1957 63.387 58.5181 63.5205 58.7559 63.7582C58.9936 63.9959 59.1271 64.3183 59.1271 64.6545C59.1271 64.9907 58.9936 65.3131 58.7559 65.5508C58.5181 65.7885 58.1957 65.9221 57.8596 65.9221Z" fill="#EA9D2D"/>
<path d="M33.7761 35.5007H51.5218V38.0358H33.7761V35.5007Z" fill="#5E8569"/>
<path d="M54.0569 49.4438H64.1973V51.979H54.0569V49.4438Z" fill="#834B10"/>
<path d="M35.0135 22.8253L29.2239 34.5042C28.887 34.0621 28.7049 33.5215 28.7058 32.9657V25.3604C28.7058 24.688 28.9729 24.0432 29.4483 23.5678C29.9238 23.0923 30.5686 22.8253 31.2409 22.8253H35.0135Z" fill="#B9B9B9"/>
<path d="M26.0006 13.4595L35.0838 17.9681L17.9057 52.6299C17.6815 53.0816 17.2871 53.4257 16.8092 53.5865C16.3312 53.7474 15.809 53.7118 15.3573 53.4876L9.68044 50.6698C9.22877 50.4456 8.88467 50.0511 8.72383 49.5732C8.56299 49.0953 8.59858 48.573 8.82279 48.1214L26.0006 13.4595Z" fill="#EBEBEB"/>
<path d="M21.549 22.4279L30.632 26.9364L17.9057 52.6299C17.6815 53.0815 17.2871 53.4256 16.8092 53.5865C16.3312 53.7473 15.809 53.7117 15.3573 53.4875L9.68044 50.6698C9.22877 50.4455 8.88467 50.0511 8.72383 49.5732C8.56299 49.0953 8.59858 48.573 8.82279 48.1213L21.549 22.4279Z" fill="#F388A2"/>
<path d="M20.9924 35.0542L22.1206 32.7827L26.6635 35.039L25.5353 37.3104L20.9924 35.0542Z" fill="#CF748A"/>
<path d="M18.7388 39.5979L19.8669 37.3264L24.4098 39.5827L23.2817 41.8541L18.7388 39.5979Z" fill="#CF748A"/>
<path d="M16.4846 44.142L17.6127 41.8705L22.1556 44.1268L21.0275 46.3982L16.4846 44.142Z" fill="#CF748A"/>
<path d="M14.231 48.6858L15.3591 46.4143L19.902 48.6706L18.7739 50.942L14.231 48.6858Z" fill="#CF748A"/>
<path d="M9.15457 58.8699C8.55215 58.5707 8.09325 58.0445 7.87883 57.4069C7.66442 56.7694 7.71205 56.0728 8.01124 55.4704L10.2675 50.9274L14.8104 53.1837L12.5541 57.7266C12.2549 58.329 11.7287 58.7879 11.0912 59.0023C10.4536 59.2168 9.757 59.1691 9.15457 58.8699Z" fill="#4799CF"/>
<path d="M24.9396 28.2945C24.7239 28.2944 24.5118 28.2393 24.3233 28.1343C24.1349 28.0293 23.9763 27.878 23.8627 27.6947C23.7491 27.5113 23.6841 27.302 23.674 27.0865C23.6639 26.8711 23.7089 26.6566 23.8048 26.4634L33.3545 7.21085C33.5039 6.90968 33.7668 6.68019 34.0854 6.57286C34.404 6.46554 34.7522 6.48917 35.0534 6.63855C35.3545 6.78794 35.584 7.05085 35.6913 7.36945C35.7987 7.68804 35.775 8.03622 35.6257 8.33739L26.0758 27.5899C25.9709 27.8016 25.8089 27.9797 25.6081 28.1042C25.4074 28.2287 25.1758 28.2946 24.9396 28.2945Z" fill="#F3AF3E"/>
<path d="M29.4145 15.154L23.8056 26.4634C23.6562 26.7646 23.6326 27.1128 23.7399 27.4313C23.8472 27.7499 24.0767 28.0128 24.3779 28.1622C24.6791 28.3116 25.0273 28.3353 25.3459 28.2279C25.6644 28.1206 25.9274 27.8911 26.0767 27.5899L31.6847 16.2816L29.4145 15.154Z" fill="#EA9D2D"/>
<path d="M21.5491 22.4279L30.632 26.9364L28.3319 31.6254L19.2488 27.1167L21.5491 22.4279Z" fill="#DA922A"/>
<path d="M31.0739 6.06479L37.8882 9.44915C39.1427 10.0722 40.6647 9.56031 41.2878 8.30582C41.9108 7.05133 41.3989 5.52929 40.1445 4.90624L33.3301 1.52188C32.0756 0.898836 30.5536 1.41072 29.9305 2.66521C29.3075 3.9197 29.8194 5.44174 31.0739 6.06479Z" fill="#4799CF"/>
<path d="M65.7818 50.7114C66.3699 50.7108 66.9337 50.4769 67.3496 50.061C67.7654 49.6452 67.9993 49.0813 68 48.4932V42.7892C67.9993 42.2011 67.7654 41.6372 67.3496 41.2214C66.9337 40.8055 66.3699 40.5716 65.7818 40.571H52.7894V36.7683H54.0569C55.0651 36.7672 56.0316 36.3662 56.7445 35.6533C57.4574 34.9404 57.8584 33.9739 57.8596 32.9657V25.3604C57.8584 24.3522 57.4574 23.3857 56.7445 22.6728C56.0316 21.9599 55.0651 21.5589 54.0569 21.5577H34.7193L36.2194 18.5314C36.3687 18.2304 36.3922 17.8823 36.2849 17.5639C36.1776 17.2455 35.9483 16.9826 35.6473 16.8332L32.2436 15.1438L35.0614 9.47336L37.3324 10.6007C37.7797 10.8227 38.2663 10.9545 38.7645 10.9884C39.2628 11.0224 39.7628 10.9579 40.2361 10.7986C40.7094 10.6393 41.1467 10.3884 41.523 10.0601C41.8993 9.73178 42.2072 9.33259 42.4293 8.88529C42.6513 8.43799 42.7831 7.95134 42.817 7.45311C42.851 6.95489 42.7865 6.45486 42.6272 5.98157C42.4679 5.50828 42.2169 5.071 41.8886 4.69469C41.5604 4.31838 41.1612 4.01042 40.7139 3.78839L33.9017 0.406403C33.4541 0.180947 32.9663 0.0462169 32.4663 0.00996126C31.9664 -0.0262944 31.4643 0.0366398 30.9888 0.195144C30.5132 0.353649 30.0738 0.604596 29.6956 0.933553C29.3174 1.26251 29.008 1.66299 28.7851 2.11195C28.5623 2.56091 28.4304 3.0495 28.397 3.54962C28.3637 4.04974 28.4295 4.55152 28.5908 5.0261C28.7521 5.50068 29.0056 5.9387 29.3367 6.31496C29.6679 6.69122 30.0701 6.9983 30.5204 7.21854L32.7906 8.34555L29.9734 14.0158L26.5642 12.3241C26.415 12.2501 26.2528 12.2062 26.0866 12.1949C25.9205 12.1836 25.7538 12.2051 25.596 12.2583C25.4382 12.3115 25.2925 12.3952 25.167 12.5047C25.0416 12.6142 24.939 12.7474 24.865 12.8965L7.68734 47.5584C7.36357 48.2128 7.27532 48.9589 7.43746 49.6708C7.59961 50.3827 8.00223 51.017 8.57748 51.4667L6.85836 54.9301C6.50795 55.6343 6.38511 56.43 6.50683 57.207C6.62855 57.9841 6.98882 58.7041 7.53777 59.2674L0.131621 74.2342C0.057756 74.3833 0.0139986 74.5456 0.00284733 74.7117C-0.0083039 74.8778 0.0133695 75.0445 0.0666301 75.2022C0.119891 75.3599 0.203695 75.5056 0.31326 75.631C0.422824 75.7563 0.556001 75.8588 0.705189 75.9327C0.854376 76.0065 1.01665 76.0503 1.18275 76.0614C1.34885 76.0726 1.51552 76.0509 1.67324 75.9977C1.83096 75.9444 1.97665 75.8606 2.10198 75.751C2.22732 75.6415 2.32984 75.5083 2.40371 75.3591L9.80668 60.3965C9.95745 60.415 10.1092 60.4245 10.2611 60.4247C10.9697 60.4239 11.6641 60.2258 12.2663 59.8524C12.8686 59.479 13.3549 58.9452 13.6707 58.3109L15.3899 54.8468C15.654 54.918 15.9262 54.9543 16.1997 54.9547C16.7903 54.954 17.3689 54.7887 17.8707 54.4775C18.3726 54.1663 18.7777 53.7213 19.0408 53.1926L28.0452 35.0236C28.3894 35.5585 28.8623 35.9985 29.4207 36.3033C29.979 36.6081 30.6049 36.768 31.241 36.7683H32.5085V40.6978C31.078 40.9919 29.7926 41.7703 28.869 42.9017C27.9454 44.0331 27.4401 45.4483 27.4383 46.9088V69.7247C27.4402 71.405 28.1085 73.0159 29.2967 74.2041C30.4848 75.3922 32.0958 76.0606 33.7761 76.0624H51.5218C52.0042 76.0626 52.485 76.0078 52.9549 75.8991C53.3122 76.0075 53.6835 76.0625 54.0569 76.0624H64.1973C65.2055 76.0613 66.1721 75.6603 66.885 74.9474C67.5978 74.2345 67.9988 73.268 68 72.2598V57.0492C67.999 56.2631 67.7548 55.4966 67.3009 54.8548C66.847 54.213 66.2057 53.7274 65.4649 53.4645V50.7114H65.7818ZM31.6474 4.94788C31.3463 4.79839 31.1169 4.5354 31.0097 4.21678C30.9025 3.89816 30.9262 3.55 31.0757 3.24889C31.2252 2.94778 31.4882 2.71839 31.8068 2.61118C32.1254 2.50397 32.4736 2.52773 32.7747 2.67722L39.5867 6.05873C39.7383 6.1312 39.874 6.2331 39.9859 6.35849C40.0977 6.48387 40.1836 6.63026 40.2383 6.78911C40.2931 6.94797 40.3158 7.11614 40.305 7.28383C40.2942 7.45152 40.2501 7.61539 40.1754 7.76591C40.1007 7.91643 39.9968 8.05059 39.8698 8.16059C39.7427 8.27058 39.5951 8.35422 39.4354 8.40664C39.2758 8.45906 39.1073 8.47921 38.9398 8.46592C38.7723 8.45263 38.6091 8.40617 38.4597 8.32923L31.6474 4.94788ZM31.1155 17.4135L33.3854 18.5402L31.5408 22.2625L30.0652 25.24L27.788 24.1096L31.1155 17.4135ZM26.5732 15.1588L28.8447 16.2863L25.5174 22.9824L23.2529 21.8588L26.5732 15.1588ZM11.3998 57.1837C11.2489 57.4823 10.986 57.7091 10.6685 57.8147C10.351 57.9202 10.0047 57.896 9.70499 57.7472C9.4053 57.5985 9.17659 57.3372 9.06872 57.0205C8.96085 56.7038 8.98258 56.3573 9.12918 56.0565L10.8199 52.65L13.0906 53.7771L11.3998 57.1837ZM25.4945 34.4628L22.0996 32.7771L20.9724 35.048L24.3688 36.7338L23.2438 39.0053L19.8458 37.3186L18.7188 39.5894L22.1181 41.2767L20.9923 43.5482L17.591 41.8601L16.4639 44.1309L19.866 45.8196L18.741 48.0912L15.3367 46.4017L14.2097 48.6726L17.6148 50.3628L16.7705 52.0664C16.6956 52.2168 16.5641 52.3314 16.4048 52.3849C16.2455 52.4383 16.0715 52.4264 15.921 52.3516L10.244 49.5339C10.0936 49.4588 9.97907 49.3271 9.92561 49.1677C9.87214 49.0083 9.88408 48.8342 9.95879 48.6836L19.8083 28.8091L26.6206 32.1904L25.4945 34.4628ZM28.8041 27.7846L27.746 29.9198L20.9421 26.5424L21.995 24.3961L22.1268 24.1299L28.938 27.5108L28.8041 27.7846ZM31.241 34.2332C30.9049 34.2329 30.5827 34.0992 30.3451 33.8616C30.1075 33.6239 29.9738 33.3017 29.9734 32.9657V31.1569L31.0825 28.8953L33.463 24.0928H54.0569C54.393 24.0932 54.7152 24.2269 54.9528 24.4645C55.1904 24.7021 55.3241 25.0243 55.3245 25.3604V26.6279H47.7192C47.383 26.6279 47.0606 26.7615 46.8229 26.9992C46.5851 27.2369 46.4516 27.5593 46.4516 27.8955C46.4516 28.2317 46.5851 28.5541 46.8229 28.7918C47.0606 29.0295 47.383 29.163 47.7192 29.163H55.3245V32.9657C55.3241 33.3017 55.1904 33.6239 54.9528 33.8616C54.7152 34.0992 54.393 34.2329 54.0569 34.2332H31.241ZM29.9734 46.9088C29.9746 45.9006 30.3756 44.934 31.0884 44.2211C31.8013 43.5082 32.7679 43.1072 33.7761 43.1061C34.1123 43.1061 34.4347 42.9726 34.6724 42.7348C34.9101 42.4971 35.0436 42.1747 35.0436 41.8385V36.7683H50.2543V48.1763H29.9734V46.9088ZM33.7761 73.5273C32.7679 73.5262 31.8013 73.1252 31.0884 72.4123C30.3756 71.6994 29.9746 70.7329 29.9734 69.7247V68.4571H50.2543V72.2598C50.2541 72.6917 50.3278 73.1204 50.4723 73.5273H33.7761ZM50.2543 57.0492V65.922H29.9734V50.7114H52.7894V53.4645C52.0485 53.7274 51.4072 54.213 50.9533 54.8548C50.4995 55.4966 50.2553 56.2631 50.2543 57.0492ZM65.4649 72.2598C65.4645 72.5958 65.3308 72.918 65.0932 73.1557C64.8556 73.3933 64.5334 73.527 64.1973 73.5273H54.0569C53.7208 73.527 53.3987 73.3933 53.161 73.1557C52.9234 72.918 52.7897 72.5958 52.7894 72.2598V70.9922H65.4649V72.2598ZM65.4649 63.3869H62.9298C62.5936 63.3869 62.2712 63.5205 62.0335 63.7582C61.7958 63.9959 61.6622 64.3183 61.6622 64.6545C61.6622 64.9907 61.7958 65.3131 62.0335 65.5508C62.2712 65.7885 62.5936 65.922 62.9298 65.922H65.4649V68.4571H52.7894V60.8518H65.4649V63.3869ZM65.4649 58.3167H52.7894V57.0492C52.7897 56.7131 52.9234 56.3909 53.161 56.1533C53.3987 55.9157 53.7208 55.782 54.0569 55.7816H64.1973C64.5334 55.782 64.8556 55.9157 65.0932 56.1533C65.3308 56.3909 65.4645 56.7131 65.4649 57.0492V58.3167ZM55.3245 53.2465V50.7114H62.9298V53.2465H55.3245ZM52.7894 48.1763V43.1061H65.4649V48.1763H52.7894Z" fill="black"/>
<path d="M44.5502 59.5842H40.7475C40.2433 59.5842 39.7596 59.7845 39.4031 60.1411C39.0465 60.4977 38.8462 60.9813 38.8462 61.4856C38.8462 61.9898 39.0465 62.4734 39.4031 62.83C39.7596 63.1866 40.2433 63.3869 40.7475 63.3869H44.5502C45.0544 63.3869 45.538 63.1866 45.8946 62.83C46.2512 62.4734 46.4515 61.9898 46.4515 61.4856C46.4515 60.9813 46.2512 60.4977 45.8946 60.1411C45.538 59.7845 45.0544 59.5842 44.5502 59.5842Z" fill="black"/>
<path d="M42.6489 57.0491C42.9851 57.0491 43.3075 56.9156 43.5452 56.6779C43.7829 56.4401 43.9165 56.1177 43.9165 55.7816V54.514C43.9165 54.1778 43.7829 53.8554 43.5452 53.6177C43.3075 53.38 42.9851 53.2465 42.6489 53.2465C42.3127 53.2465 41.9903 53.38 41.7526 53.6177C41.5149 53.8554 41.3813 54.1778 41.3813 54.514V55.7816C41.3813 56.1177 41.5149 56.4401 41.7526 56.6779C41.9903 56.9156 42.3127 57.0491 42.6489 57.0491Z" fill="black"/>
<path d="M40.114 57.0491V55.7816C40.114 55.4454 39.9804 55.123 39.7427 54.8853C39.505 54.6476 39.1826 54.514 38.8464 54.514C38.5102 54.514 38.1878 54.6476 37.9501 54.8853C37.7124 55.123 37.5789 55.4454 37.5789 55.7816V57.0491C37.5789 57.3853 37.7124 57.7077 37.9501 57.9454C38.1878 58.1831 38.5102 58.3167 38.8464 58.3167C39.1826 58.3167 39.505 58.1831 39.7427 57.9454C39.9804 57.7077 40.114 57.3853 40.114 57.0491Z" fill="black"/>
<path d="M46.4516 54.514C46.1155 54.514 45.7931 54.6476 45.5553 54.8853C45.3176 55.123 45.1841 55.4454 45.1841 55.7816V57.0491C45.1841 57.3853 45.3176 57.7077 45.5553 57.9454C45.7931 58.1831 46.1155 58.3167 46.4516 58.3167C46.7878 58.3167 47.1102 58.1831 47.3479 57.9454C47.5856 57.7077 47.7192 57.3853 47.7192 57.0491V55.7816C47.7192 55.4454 47.5856 55.123 47.3479 54.8853C47.1102 54.6476 46.7878 54.514 46.4516 54.514Z" fill="black"/>
<path d="M56.592 65.9221H57.8596C58.1957 65.9221 58.5181 65.7885 58.7559 65.5508C58.9936 65.3131 59.1271 64.9907 59.1271 64.6545C59.1271 64.3183 58.9936 63.9959 58.7559 63.7582C58.5181 63.5205 58.1957 63.387 57.8596 63.387H56.592C56.2558 63.387 55.9334 63.5205 55.6957 63.7582C55.458 63.9959 55.3245 64.3183 55.3245 64.6545C55.3245 64.9907 55.458 65.3131 55.6957 65.5508C55.9334 65.7885 56.2558 65.9221 56.592 65.9221Z" fill="black"/>
<path d="M40.1137 29.163H42.6488C42.985 29.163 43.3074 29.0295 43.5451 28.7918C43.7829 28.5541 43.9164 28.2317 43.9164 27.8955C43.9164 27.5593 43.7829 27.2369 43.5451 26.9992C43.3074 26.7615 42.985 26.6279 42.6488 26.6279H40.1137C39.7776 26.6279 39.4552 26.7615 39.2174 26.9992C38.9797 27.2369 38.8462 27.5593 38.8462 27.8955C38.8462 28.2317 38.9797 28.5541 39.2174 28.7918C39.4552 29.0295 39.7776 29.163 40.1137 29.163Z" fill="black"/>
</svg>
