<svg width="72" height="78" viewBox="0 0 72 78" fill="none" xmlns="http://www.w3.org/2000/svg">
<path d="M30.8572 25.7143V22.378C30.8572 21.8126 30.9815 21.2541 31.2214 20.742C31.4612 20.23 31.8107 19.7769 32.2451 19.4149L37.7838 14.7992C38.2927 14.3751 38.9342 14.1429 39.5967 14.1429C39.9685 14.1428 40.3368 14.2161 40.6804 14.3584C41.024 14.5007 41.3362 14.7092 41.5991 14.9722C41.8621 15.2352 42.0707 15.5473 42.213 15.8909C42.3553 16.2345 42.4286 16.6027 42.4286 16.9746V22.032C42.4286 22.7918 42.279 23.5441 41.9882 24.2461C41.6975 24.9481 41.2713 25.5859 40.734 26.1231L38.5715 28.2857V33.8143C38.5715 34.4709 38.3886 35.1146 38.0434 35.6732C37.6982 36.2317 37.2043 36.6831 36.617 36.9768L33.4286 38.5714H30.8572V25.7143Z" fill="#E08122"/>
<path d="M12.8571 25.7143V22.378C12.8571 21.8126 12.7327 21.2541 12.4929 20.742C12.253 20.23 11.9035 19.7769 11.4691 19.4149L5.93029 14.7992C5.42142 14.3751 4.77999 14.1429 4.11759 14.1429C3.7457 14.1428 3.37745 14.2161 3.03386 14.3584C2.69028 14.5007 2.37808 14.7092 2.11511 14.9722C1.85214 15.2352 1.64354 15.5473 1.50122 15.8909C1.3589 16.2345 1.28564 16.6027 1.28564 16.9746V22.032C1.28564 22.7918 1.43528 23.5441 1.72604 24.2461C2.01679 24.9481 2.44296 25.5859 2.98021 26.1231L5.14279 28.2857V33.8143C5.14276 34.4709 5.32559 35.1146 5.67079 35.6732C6.01599 36.2317 6.50992 36.6831 7.09723 36.9768L10.2856 38.5714H12.8571V25.7143Z" fill="#E08122"/>
<path d="M32.1419 31.2858C31.9032 31.2856 31.6693 31.219 31.4663 31.0934C31.2634 30.9678 31.0994 30.7881 30.9927 30.5746C30.886 30.3611 30.8409 30.1221 30.8624 29.8843C30.8839 29.6466 30.9711 29.4196 31.1143 29.2286L36 22.7142V20.5714C36 20.2304 36.1355 19.9034 36.3766 19.6623C36.6177 19.4212 36.9448 19.2857 37.2857 19.2857C37.6267 19.2857 37.9538 19.4212 38.1949 19.6623C38.436 19.9034 38.5715 20.2304 38.5715 20.5714V23.1428C38.5715 23.421 38.4812 23.6917 38.3143 23.9143L33.1715 30.7713C33.0517 30.9313 32.8963 31.0611 32.7176 31.1504C32.5389 31.2397 32.3417 31.2861 32.1419 31.2858Z" fill="#BF6E1D"/>
<path d="M11.5724 31.2858C11.3726 31.2861 11.1755 31.2397 10.9967 31.1504C10.818 31.0612 10.6626 30.9314 10.5428 30.7715L5.39996 23.9143C5.23305 23.6917 5.14282 23.421 5.14282 23.1428V20.5714C5.14282 20.2304 5.27828 19.9034 5.5194 19.6623C5.76052 19.4212 6.08754 19.2857 6.42854 19.2857C6.76953 19.2857 7.09655 19.4212 7.33767 19.6623C7.57879 19.9034 7.71425 20.2304 7.71425 20.5714V22.7142L12.6 29.2286C12.7432 29.4196 12.8304 29.6466 12.8519 29.8843C12.8734 30.1221 12.8282 30.3611 12.7216 30.5746C12.6149 30.7881 12.4509 30.9678 12.2479 31.0934C12.045 31.219 11.811 31.2856 11.5724 31.2858Z" fill="#BF6E1D"/>
<path d="M33.3773 69.7885L32.143 70.7142L32.8244 70.9409L34.2419 71.4134C34.7537 71.5843 35.1989 71.9119 35.5144 72.3497C35.8299 72.7875 35.9998 73.3134 36.0001 73.853V75.8571H7.71442V73.5894C7.71438 73.112 7.84726 72.644 8.09819 72.2378C8.34911 71.8316 8.70817 71.5033 9.13514 71.2896L10.2859 70.7142L7.9346 68.363C6.97058 67.3988 6.42892 66.0911 6.42871 64.7276V60.2084C6.42873 59.8705 6.4953 59.5359 6.62463 59.2237C6.75396 58.9116 6.94351 58.628 7.18246 58.3891L10.2859 55.2857L12.8573 48.8571H30.8573L33.4287 55.2857L36.5321 58.3891C36.771 58.628 36.9606 58.9116 37.0899 59.2237C37.2192 59.5359 37.2858 59.8705 37.2858 60.2084V64.2857C37.2859 65.0841 37.1001 65.8716 36.743 66.5857C36.386 67.2998 35.8675 67.921 35.2287 68.4L33.3773 69.7885Z" fill="#FD9226"/>
<path d="M30.8571 48.8571H12.8571L10.2856 42.4286V30.2827C10.2857 29.004 10.7936 27.7777 11.6978 26.8735L11.7207 26.8507C12.4583 26.1131 13.4153 25.6346 14.448 25.487L14.5839 25.4676C19.4082 24.7784 24.3059 24.7784 29.1302 25.4676L29.2662 25.487C30.2988 25.6346 31.2558 26.1131 31.9935 26.8507L32.0163 26.8735C32.9205 27.7777 33.4285 29.004 33.4285 30.2827V42.4286L30.8571 48.8571Z" fill="#FD9226"/>
<path d="M26.6698 52.7143C25.9804 52.7143 25.3018 52.5442 24.694 52.2189C24.0862 51.8937 23.5681 51.4235 23.1856 50.85L21.8572 48.8571L20.5289 50.85C20.1464 51.4235 19.6283 51.8937 19.0205 52.2189C18.4128 52.5442 17.7341 52.7143 17.0447 52.7143C16.4948 52.7143 15.9503 52.606 15.4422 52.3956C14.9342 52.1851 14.4726 51.8767 14.0837 51.4879C13.6948 51.099 13.3864 50.6374 13.1759 50.1293C12.9655 49.6213 12.8572 49.0768 12.8572 48.5269V46.616C12.8572 45.5054 13.2983 44.4403 14.0836 43.655C14.8689 42.8697 15.934 42.4286 17.0446 42.4286H26.6698C27.7803 42.4286 28.8454 42.8697 29.6307 43.655C30.416 44.4403 30.8572 45.5054 30.8572 46.616V48.5269C30.8572 49.6374 30.416 50.7025 29.6307 51.4878C28.8454 52.2731 27.7803 52.7143 26.6698 52.7143Z" fill="#985713"/>
<path d="M14.1428 72V75.8571H11.5714V72.3037L10.4206 70.0039C10.332 69.825 10.2858 69.6282 10.2856 69.4285V63C10.2856 62.659 10.4211 62.332 10.6622 62.0908C10.9033 61.8497 11.2304 61.7143 11.5714 61.7143C11.9124 61.7143 12.2394 61.8497 12.4805 62.0908C12.7216 62.332 12.8571 62.659 12.8571 63V69.1248L14.0078 71.4246C14.0964 71.6035 14.1426 71.8004 14.1428 72Z" fill="#E08122"/>
<path d="M20.5713 63V69.4286C20.5711 69.6282 20.5249 69.8251 20.4363 70.0039L19.2855 72.3038V75.8571H16.7141V72C16.7143 71.8004 16.7605 71.6035 16.8491 71.4246L17.9998 69.1248V63C17.9998 62.659 18.1353 62.332 18.3764 62.0909C18.6175 61.8498 18.9445 61.7143 19.2855 61.7143C19.6265 61.7143 19.9536 61.8498 20.1947 62.0909C20.4358 62.332 20.5713 62.659 20.5713 63Z" fill="#E08122"/>
<path d="M33.4284 63V69.4286C33.428 69.6282 33.3818 69.825 33.2934 70.0039L32.8241 70.9409L32.1427 72.3038V75.8571H29.5713V72C29.5715 71.8004 29.6177 71.6035 29.7063 71.4246L30.857 69.1248V63C30.857 62.659 30.9925 62.332 31.2336 62.0909C31.4747 61.8498 31.8017 61.7143 32.1427 61.7143C32.4837 61.7143 32.8107 61.8498 33.0519 62.0909C33.293 62.332 33.4284 62.659 33.4284 63Z" fill="#E08122"/>
<path d="M27 72V75.8571H24.4285V72.3038L23.2778 70.0039C23.1892 69.8251 23.143 69.6282 23.1428 69.4286V63C23.1428 62.659 23.2783 62.332 23.5194 62.0909C23.7605 61.8498 24.0875 61.7143 24.4285 61.7143C24.7695 61.7143 25.0966 61.8498 25.3377 62.0909C25.5788 62.332 25.7142 62.659 25.7142 63V69.1248L26.865 71.4246C26.9536 71.6035 26.9998 71.8004 27 72Z" fill="#E08122"/>
<path d="M21.8571 47.5714C23.2772 47.5714 24.4285 46.4201 24.4285 45C24.4285 43.5798 23.2772 42.4286 21.8571 42.4286C20.4369 42.4286 19.2856 43.5798 19.2856 45C19.2856 46.4201 20.4369 47.5714 21.8571 47.5714Z" fill="#70400E"/>
<path d="M16.7144 37.7678C17.6907 37.7678 18.4822 36.9763 18.4822 36C18.4822 35.0236 17.6907 34.2321 16.7144 34.2321C15.738 34.2321 14.9465 35.0236 14.9465 36C14.9465 36.9763 15.738 37.7678 16.7144 37.7678Z" fill="#985713"/>
<path d="M27.4822 37.7678C28.4586 37.7678 29.2501 36.9763 29.2501 36C29.2501 35.0236 28.4586 34.2321 27.4822 34.2321C26.5059 34.2321 25.7144 35.0236 25.7144 36C25.7144 36.9763 26.5059 37.7678 27.4822 37.7678Z" fill="#985713"/>
<path d="M52.7143 47.5714V72C52.7143 73.3639 52.1725 74.672 51.208 75.6365C50.2435 76.601 48.9354 77.1428 47.5715 77.1428C46.2075 77.1428 44.8994 76.601 43.9349 75.6365C42.9704 74.672 42.4286 73.3639 42.4286 72V66.5357C42.4286 66.2799 42.327 66.0347 42.1462 65.8538C41.9653 65.673 41.7201 65.5714 41.4643 65.5714H32.1429C31.8019 65.5714 31.4749 65.4359 31.2338 65.1948C30.9926 64.9537 30.8572 64.6267 30.8572 64.2857C30.8572 63.9447 30.9926 63.6177 31.2338 63.3765C31.4749 63.1354 31.8019 63 32.1429 63H41.4643C42.4017 63.0011 43.3004 63.3739 43.9632 64.0368C44.6261 64.6996 44.9989 65.5983 45 66.5357V72C45 72.6819 45.2709 73.336 45.7532 73.8182C46.2354 74.3005 46.8895 74.5714 47.5715 74.5714C48.2534 74.5714 48.9075 74.3005 49.3897 73.8182C49.872 73.336 50.1429 72.6819 50.1429 72V47.5714C50.1429 47.2304 50.2783 46.9034 50.5195 46.6623C50.7606 46.4211 51.0876 46.2857 51.4286 46.2857C51.7696 46.2857 52.0966 46.4211 52.3377 46.6623C52.5789 46.9034 52.7143 47.2304 52.7143 47.5714Z" fill="#DBDBDB"/>
<path d="M51.4286 25.7143C50.7051 25.7138 49.9899 25.561 49.3295 25.2657C48.6691 24.9704 48.0782 24.5393 47.5955 24.0004C47.4829 23.8746 47.3962 23.7278 47.3403 23.5685C47.2844 23.4092 47.2605 23.2404 47.2698 23.0718C47.2886 22.7314 47.442 22.4123 47.6961 22.1849C47.9501 21.9575 48.2842 21.8403 48.6246 21.8592C48.7932 21.8685 48.9583 21.9109 49.1105 21.9841C49.2627 22.0572 49.399 22.1596 49.5116 22.2854C49.7975 22.6052 50.1588 22.8483 50.5627 22.9927C50.9666 23.1371 51.4003 23.1782 51.8241 23.1122C52.2479 23.0462 52.6485 22.8752 52.9894 22.6149C53.3302 22.3545 53.6006 22.013 53.7757 21.6214C53.9509 21.2299 54.0253 20.8007 53.9922 20.3731C53.9591 19.9454 53.8196 19.5328 53.5863 19.1729C53.353 18.8129 53.0333 18.517 52.6565 18.3122C52.2796 18.1073 51.8575 18 51.4286 18C51.0876 18 50.7605 17.8645 50.5194 17.6234C50.2783 17.3823 50.1428 17.0553 50.1428 16.7143V5.14285C50.1428 4.80186 50.2783 4.47483 50.5194 4.23372C50.7605 3.9926 51.0876 3.85714 51.4286 3.85714C51.7696 3.85714 52.0966 3.9926 52.3377 4.23372C52.5788 4.47483 52.7143 4.80186 52.7143 5.14285V15.5912C53.9269 15.9036 54.9838 16.6477 55.6869 17.6839C56.3899 18.7201 56.6908 19.9772 56.533 21.2194C56.3752 22.4616 55.7697 23.6036 54.8299 24.4311C53.8902 25.2587 52.6808 25.7149 51.4286 25.7143Z" fill="#878787"/>
<path d="M66.8572 6.42857H50.143C49.461 6.42857 48.8069 6.15765 48.3247 5.67541C47.8424 5.19318 47.5715 4.53913 47.5715 3.85714C47.5715 3.17516 47.8424 2.5211 48.3247 2.03887C48.8069 1.55663 49.461 1.28571 50.143 1.28571H66.8572V6.42857Z" fill="#CBCBCB"/>
<path d="M61.7144 6.42857H66.8572V70.7142H61.7144V6.42857Z" fill="#985713"/>
<path d="M70.7143 75.8571H57.8572C57.8572 74.6706 58.1501 73.5025 58.71 72.4564C59.2698 71.4103 60.0793 70.5186 61.0665 69.8604L61.7143 69.4285H66.8572L67.505 69.8604C68.4922 70.5186 69.3017 71.4103 69.8615 72.4564C70.4214 73.5025 70.7143 74.6706 70.7143 75.8571Z" fill="#70400E"/>
<path d="M45 51.4285H47.5714V54H45V51.4285Z" fill="#C0F5F9"/>
<path d="M45 56.5714H47.5714V61.7143H45V56.5714Z" fill="#C0F5F9"/>
<path d="M23.1428 61.7143H33.4285V66.8571H23.1428V61.7143Z" fill="#6B9777"/>
<path d="M51.4285 30.8571C51.0875 30.8571 50.7605 30.7217 50.5194 30.4806C50.2783 30.2394 50.1428 29.9124 50.1428 29.5714V24.4286C50.1428 24.0876 50.2783 23.7605 50.5194 23.5194C50.7605 23.2783 51.0875 23.1428 51.4285 23.1428C51.7695 23.1428 52.0966 23.2783 52.3377 23.5194C52.5788 23.7605 52.7142 24.0876 52.7142 24.4286V29.5714C52.7142 29.9124 52.5788 30.2394 52.3377 30.4806C52.0966 30.7217 51.7695 30.8571 51.4285 30.8571Z" fill="#CBCBCB"/>
<path d="M52.7142 47.5714V48.6948C51.8708 48.9112 50.9863 48.9112 50.1428 48.6948V47.5714C50.1428 47.2304 50.2783 46.9034 50.5194 46.6623C50.7605 46.4211 51.0875 46.2857 51.4285 46.2857C51.7695 46.2857 52.0966 46.4211 52.3377 46.6623C52.5788 46.9034 52.7142 47.2304 52.7142 47.5714Z" fill="#C3C3C3"/>
<path d="M61.7144 6.42857H66.8572V8.99999H61.7144V6.42857Z" fill="#70400E"/>
<path d="M33.4285 63H34.7142V65.5714H33.4285V63Z" fill="#C3C3C3"/>
<path d="M46.2856 29.5714H56.5714V42.4285C56.5714 43.7925 56.0295 45.1006 55.065 46.0651C54.1006 47.0296 52.7925 47.5714 51.4285 47.5714C50.0645 47.5714 48.7564 47.0296 47.792 46.0651C46.8275 45.1006 46.2856 43.7925 46.2856 42.4285V29.5714Z" fill="#EBEBEB"/>
<path d="M51.4285 47.5714C50.0645 47.5714 48.7564 47.0296 47.792 46.0651C46.8275 45.1006 46.2856 43.7925 46.2856 42.4286V34.7143H56.5714V42.4286C56.5714 43.7925 56.0295 45.1006 55.065 46.0651C54.1006 47.0296 52.7925 47.5714 51.4285 47.5714Z" fill="#C0F5F9"/>
<path d="M54 39.8571H52.7143V38.5714H50.1429V39.8571H48.8572V42.4286H50.1429V43.7143H52.7143V42.4286H54V39.8571Z" fill="#85BC94"/>
<path d="M46.2856 34.7143H56.5714V36H46.2856V34.7143Z" fill="#B8EAEE"/>
<path d="M16.7144 37.7678C17.6907 37.7678 18.4822 36.9763 18.4822 36C18.4822 35.0236 17.6907 34.2321 16.7144 34.2321C15.738 34.2321 14.9465 35.0236 14.9465 36C14.9465 36.9763 15.738 37.7678 16.7144 37.7678Z" fill="black"/>
<path d="M27.4822 37.7678C28.4586 37.7678 29.2501 36.9763 29.2501 36C29.2501 35.0236 28.4586 34.2321 27.4822 34.2321C26.5059 34.2321 25.7144 35.0236 25.7144 36C25.7144 36.9763 26.5059 37.7678 27.4822 37.7678Z" fill="black"/>
<path d="M3.85717 28.8181V33.8143C3.85431 34.7103 4.10245 35.5892 4.57349 36.3515C5.04452 37.1137 5.71962 37.7288 6.52229 38.127L9.00002 39.366V42.4286C9.00002 42.5921 9.03122 42.7542 9.09195 42.906L11.4725 48.8571L9.19031 54.5625L6.27319 57.4799C5.91375 57.8374 5.62877 58.2626 5.43476 58.7309C5.24074 59.1993 5.14154 59.7014 5.14288 60.2084V64.7276C5.14059 65.572 5.30579 66.4084 5.62891 67.1885C5.95203 67.9685 6.42666 68.6768 7.02533 69.2722L8.13779 70.3846C7.61009 70.7358 7.17773 71.2124 6.87945 71.7717C6.58116 72.331 6.42625 72.9556 6.4286 73.5894V75.8571C6.4286 76.1981 6.56406 76.5251 6.80517 76.7662C7.04629 77.0074 7.37332 77.1428 7.71431 77.1428H36C36.341 77.1428 36.668 77.0074 36.9091 76.7662C37.1503 76.5251 37.2857 76.1981 37.2857 75.8571V73.853C37.2863 73.0838 37.0566 72.3319 36.6263 71.6944C36.1959 71.0568 35.5845 70.5626 34.8708 70.2755L36 69.4285C37.2549 68.4823 38.1215 67.1109 38.4376 65.5714H41.4643C41.72 65.5717 41.9651 65.6733 42.1459 65.8541C42.3266 66.0349 42.4283 66.28 42.4286 66.5357V72C42.4286 73.3639 42.9704 74.672 43.9349 75.6365C44.8994 76.601 46.2075 77.1428 47.5714 77.1428C48.9354 77.1428 50.2435 76.601 51.208 75.6365C52.1725 74.672 52.7143 73.3639 52.7143 72V48.7285C54.1654 48.4303 55.4693 47.6408 56.4061 46.4932C57.3429 45.3455 57.8554 43.91 57.8571 42.4286V29.5714C57.8571 29.2304 57.7217 28.9034 57.4806 28.6623C57.2395 28.4212 56.9124 28.2857 56.5714 28.2857H52.7143V25.5515C53.8188 25.2668 54.7973 24.6231 55.4959 23.7216C56.1946 22.8201 56.5737 21.7119 56.5737 20.5713C56.5737 19.4308 56.1946 18.3226 55.4959 17.4211C54.7973 16.5195 53.8188 15.8758 52.7143 15.5912V7.71428H60.4286V68.7405L60.3534 68.7907C59.1889 69.5651 58.2343 70.6157 57.5744 71.8486C56.9145 73.0816 56.5699 74.4587 56.5714 75.8571C56.5714 76.1981 56.7069 76.5251 56.948 76.7662C57.1891 77.0074 57.5162 77.1428 57.8571 77.1428H70.7143C71.0553 77.1428 71.3823 77.0074 71.6234 76.7662C71.8645 76.5251 72 76.1981 72 75.8571C72.0015 74.4586 71.6569 73.0816 70.997 71.8486C70.3372 70.6156 69.3825 69.565 68.2181 68.7905L68.1429 68.7404V1.28571C68.1429 0.944721 68.0074 0.617695 67.7663 0.376577C67.5252 0.135459 67.1981 0 66.8571 0H50.1429C49.1199 0 48.1388 0.406376 47.4155 1.12973C46.6921 1.85308 46.2857 2.83416 46.2857 3.85714C46.2857 4.88012 46.6921 5.8612 47.4155 6.58455C48.1388 7.30791 49.1199 7.71428 50.1429 7.71428V16.7143C50.1429 17.0553 50.2783 17.3823 50.5194 17.6234C50.7606 17.8645 51.0876 18 51.4286 18C51.8575 18 52.2796 18.1073 52.6565 18.3122C53.0334 18.517 53.353 18.8129 53.5863 19.1729C53.8196 19.5328 53.9591 19.9454 53.9922 20.3731C54.0253 20.8007 53.9509 21.2299 53.7757 21.6214C53.6006 22.013 53.3303 22.3545 52.9894 22.6149C52.6485 22.8753 52.2479 23.0462 51.8241 23.1122C51.4003 23.1782 50.9667 23.1372 50.5628 22.9927C50.1589 22.8483 49.7975 22.6052 49.5116 22.2854C49.399 22.1596 49.2627 22.0572 49.1105 21.9841C48.9583 21.911 48.7932 21.8685 48.6246 21.8592C48.4561 21.8498 48.2873 21.8738 48.128 21.9297C47.9686 21.9856 47.8219 22.0723 47.6961 22.1849C47.5703 22.2975 47.4679 22.4338 47.3947 22.586C47.3216 22.7382 47.2791 22.9033 47.2698 23.0718C47.2605 23.2404 47.2844 23.4092 47.3403 23.5685C47.3962 23.7279 47.4829 23.8746 47.5955 24.0004C48.2734 24.7565 49.1596 25.2954 50.1429 25.5494V28.2857H46.2857C45.9447 28.2857 45.6177 28.4212 45.3766 28.6623C45.1355 28.9034 45 29.2304 45 29.5714V42.4286C45.0017 43.91 45.5142 45.3455 46.451 46.4932C47.3879 47.6408 48.6918 48.4303 50.1429 48.7285V72C50.1429 72.682 49.8719 73.336 49.3897 73.8182C48.9075 74.3005 48.2534 74.5714 47.5714 74.5714C46.8895 74.5714 46.2354 74.3005 45.7532 73.8182C45.2709 73.336 45 72.682 45 72V66.5357C44.9989 65.5983 44.6261 64.6996 43.9632 64.0367C43.3004 63.3739 42.4017 63.001 41.4643 63H38.5714V60.2084C38.5728 59.7014 38.4736 59.1993 38.2796 58.7309C38.0856 58.2626 37.8006 57.8374 37.4411 57.4799L34.5243 54.5625L32.2422 48.8571L34.6227 42.906C34.6833 42.7541 34.7144 42.5921 34.7143 42.4286V39.366L37.1927 38.1267C37.9952 37.7284 38.6702 37.1134 39.1411 36.3512C39.612 35.589 39.8601 34.7102 39.8572 33.8143V28.8181L41.6438 27.0321C42.3024 26.3771 42.8245 25.5979 43.1799 24.7396C43.5354 23.8814 43.717 22.9612 43.7143 22.0323V16.9746C43.7144 16.4339 43.6079 15.8984 43.401 15.3989C43.1941 14.8993 42.8908 14.4453 42.5084 14.063C42.1261 13.6806 41.6722 13.3773 41.1726 13.1704C40.673 12.9635 40.1375 12.8571 39.5968 12.8571C38.634 12.8586 37.7018 13.1959 36.9611 13.811L31.4234 18.4259C30.8429 18.9078 30.376 19.5118 30.0559 20.195C29.7358 20.8781 29.5703 21.6234 29.5714 22.3778V24.2357C29.5343 24.2298 29.4974 24.2227 29.4602 24.2175L29.3109 24.1947C24.3625 23.4891 19.3389 23.4898 14.3907 24.1966L14.2694 24.2151C14.2269 24.2212 14.185 24.229 14.1429 24.2359V22.3778C14.144 21.6236 13.9786 20.8784 13.6586 20.1954C13.3386 19.5124 12.8718 18.9084 12.2916 18.4265L6.75131 13.809C6.01084 13.195 5.07945 12.8584 4.11753 12.8571C3.57679 12.8571 3.04134 12.9635 2.54175 13.1704C2.04217 13.3773 1.58823 13.6806 1.20587 14.063C0.823517 14.4453 0.520228 14.8993 0.313326 15.3989C0.106425 15.8984 -3.41736e-05 16.4339 2.91554e-05 16.9746V22.0323C-0.00264729 22.9612 0.178973 23.8814 0.534375 24.7396C0.889777 25.5979 1.4119 26.3771 2.07051 27.0321L3.85717 28.8181ZM66.7917 70.9301C68.0631 71.7757 68.9577 73.0807 69.2881 74.5714H59.2833C59.6136 73.0807 60.5083 71.7758 61.7797 70.9303L62.1035 70.7142H66.4679L66.7917 70.9301ZM63 68.1428V7.71428H65.5714V68.1428H63ZM50.1429 5.14285C49.8019 5.14285 49.4748 5.0074 49.2337 4.76628C48.9926 4.52516 48.8571 4.19813 48.8571 3.85714C48.8571 3.51615 48.9926 3.18912 49.2337 2.948C49.4748 2.70689 49.8019 2.57143 50.1429 2.57143H65.5714V5.14285H50.1429ZM47.5714 30.8571H55.2857V33.4286H47.5714V30.8571ZM47.5714 42.4286V36H55.2857V42.4286C55.2857 43.4515 54.8793 44.4326 54.156 45.156C53.4326 45.8793 52.4516 46.2857 51.4286 46.2857C50.4056 46.2857 49.4245 45.8793 48.7012 45.156C47.9778 44.4326 47.5714 43.4515 47.5714 42.4286ZM11.5715 74.5714H9.00002V73.5894C8.99912 73.3506 9.06515 73.1163 9.19061 72.913C9.31608 72.7098 9.49597 72.5457 9.7099 72.4395L10.8608 71.8642C10.9947 71.797 11.1159 71.707 11.2188 71.5982L11.5715 72.3036V74.5714ZM30.8572 69.1249L29.7072 71.4249C29.6179 71.6035 29.5714 71.8003 29.5714 72V74.5714H27V72C27 71.8003 26.9535 71.6035 26.8642 71.4249L25.7143 69.1249V68.1428H30.8572V69.1249ZM30.8572 65.5714H25.7143V63H30.8572V65.5714ZM34.7143 74.5714H32.1429V72.3036L32.2432 72.1028L33.8342 72.6332C34.0904 72.7184 34.3133 72.882 34.4713 73.101C34.6292 73.3199 34.7143 73.583 34.7143 73.853V74.5714ZM34.4572 67.3714L33.4286 68.1428V65.5714H35.7768C35.5234 66.2881 35.0644 66.9142 34.4572 67.3714ZM32.5194 56.1949L35.6228 59.2982C35.7428 59.4174 35.8379 59.5593 35.9026 59.7155C35.9674 59.8717 36.0005 60.0393 36 60.2084V63H33.4286V61.7143C33.4286 61.3733 33.2931 61.0462 33.052 60.8051C32.8109 60.564 32.4839 60.4285 32.1429 60.4285H24.4286C24.0876 60.4285 23.7606 60.564 23.5195 60.8051C23.2783 61.0462 23.1429 61.3733 23.1429 61.7143V69.4285C23.1429 69.6282 23.1894 69.8251 23.2787 70.0036L24.4286 72.3036V74.5714H19.2857V72.3036L20.4356 70.0036C20.525 69.8251 20.5715 69.6282 20.5714 69.4285V63C20.5714 62.659 20.436 62.332 20.1949 62.0908C19.9538 61.8497 19.6267 61.7143 19.2857 61.7143C18.9447 61.7143 18.6177 61.8497 18.3766 62.0908C18.1355 62.332 18 62.659 18 63V69.1249L16.8501 71.4249C16.7608 71.6035 16.7143 71.8003 16.7143 72V74.5714H14.1429V72C14.1429 71.8003 14.0964 71.6035 14.0071 71.4249L12.8572 69.1249V63C12.8572 62.659 12.7217 62.332 12.4806 62.0908C12.2395 61.8497 11.9124 61.7143 11.5715 61.7143C11.2305 61.7143 10.9034 61.8497 10.6623 62.0908C10.4212 62.332 10.2857 62.659 10.2857 63V68.8961L8.84365 67.4538C8.12304 66.7292 7.71724 65.7496 7.71431 64.7276V60.2084C7.71385 60.0393 7.74695 59.8717 7.8117 59.7155C7.87645 59.5593 7.97155 59.4174 8.09151 59.2982L11.1949 56.1949C11.318 56.0717 11.4148 55.9248 11.4795 55.7632L12.9319 52.1322C13.485 52.7644 14.1763 53.2607 14.9522 53.5826C15.7281 53.9045 16.5677 54.0432 17.4059 53.9882C18.2441 53.9331 19.0583 53.6857 19.7854 53.265C20.5126 52.8444 21.133 52.2619 21.5986 51.5627L21.8572 51.1749L22.1156 51.5627C22.5812 52.2619 23.2016 52.8444 23.9288 53.265C24.6559 53.6857 25.4701 53.9331 26.3084 53.9882C27.1466 54.0432 27.9862 53.9045 28.7621 53.5826C29.538 53.2607 30.2293 52.7644 30.7824 52.1322L32.2348 55.7632C32.2995 55.9248 32.3963 56.0717 32.5194 56.1949ZM20.4819 48.6027L19.4593 50.1364C19.1139 50.6548 18.6109 51.0482 18.0246 51.2586C17.4383 51.469 16.7999 51.4851 16.2037 51.3046C15.6075 51.1241 15.0853 50.7565 14.7141 50.2563C14.343 49.756 14.1427 49.1496 14.1429 48.5267V46.6161C14.1438 45.8468 14.4498 45.1092 14.9938 44.5652C15.5378 44.0212 16.2754 43.7152 17.0447 43.7143H18.2212C17.8852 44.6629 17.9335 45.7053 18.3559 46.6188C18.7783 47.5322 19.5412 48.2443 20.4816 48.6027H20.4819ZM20.5714 45C20.5714 44.7457 20.6469 44.4971 20.7881 44.2857C20.9294 44.0742 21.1302 43.9095 21.3651 43.8121C21.6001 43.7148 21.8586 43.6894 22.108 43.739C22.3574 43.7886 22.5865 43.911 22.7663 44.0908C22.9461 44.2707 23.0686 44.4997 23.1182 44.7491C23.1678 44.9986 23.1423 45.2571 23.045 45.492C22.9477 45.7269 22.7829 45.9277 22.5715 46.069C22.36 46.2103 22.1115 46.2857 21.8572 46.2857C21.5163 46.2853 21.1895 46.1497 20.9484 45.9087C20.7074 45.6677 20.5718 45.3409 20.5714 45ZM25.4932 43.7143H26.6696C27.4389 43.7152 28.1765 44.0212 28.7205 44.5652C29.2645 45.1092 29.5706 45.8468 29.5714 46.6161V48.5267C29.5714 49.1495 29.371 49.7557 28.9999 50.2559C28.6288 50.756 28.1066 51.1235 27.5105 51.304C26.9145 51.4844 26.2762 51.4684 25.6899 51.2581C25.1037 51.0479 24.6007 50.6546 24.2552 50.1364L23.2327 48.6027C24.1731 48.2443 24.936 47.5322 25.3584 46.6188C25.7808 45.7053 25.8291 44.6629 25.4932 43.7143ZM32.1429 22.3778C32.1422 22.0005 32.2249 21.6277 32.3849 21.286C32.545 20.9442 32.7786 20.6421 33.0689 20.4011L38.6049 15.7873C38.8837 15.556 39.2345 15.4291 39.5968 15.4286C39.7998 15.4285 40.0009 15.4685 40.1885 15.5462C40.3761 15.6238 40.5466 15.7377 40.6901 15.8813C40.8337 16.0249 40.9476 16.1953 41.0253 16.3829C41.1029 16.5705 41.1429 16.7716 41.1429 16.9746V22.0323C41.1445 22.6233 41.0288 23.2088 40.8026 23.7548C40.5764 24.3009 40.2441 24.7966 39.825 25.2133L37.6618 27.3765C37.4209 27.6177 37.2856 27.9448 37.2857 28.2857V33.8143C37.2871 34.2324 37.1713 34.6426 36.9515 34.9984C36.7317 35.3542 36.4167 35.6413 36.0421 35.8272L34.7143 36.4911V30.2834C34.714 29.8244 34.6625 29.3669 34.5605 28.9194L38.3143 23.9143C38.4812 23.6917 38.5714 23.421 38.5714 23.1428V20.5714C38.5714 20.2304 38.436 19.9034 38.1949 19.6623C37.9537 19.4212 37.6267 19.2857 37.2857 19.2857C36.9447 19.2857 36.6177 19.4212 36.3766 19.6623C36.1355 19.9034 36 20.2304 36 20.5714V22.7142L33.2754 26.3464C33.1642 26.2149 33.0482 26.0865 32.9251 25.9632L32.9026 25.9407C32.6672 25.7069 32.4131 25.4926 32.1429 25.3V22.3778ZM12.6076 27.7822L12.6301 27.7597C13.1742 27.2162 13.8807 26.8648 14.6424 26.7586L14.7663 26.7396C19.4654 26.0689 24.236 26.0682 28.9353 26.7377L29.0872 26.7608C29.8432 26.8696 30.5438 27.22 31.0842 27.7597L31.1067 27.7822C31.4363 28.1099 31.6975 28.4997 31.8753 28.929C32.0532 29.3583 32.1441 29.8187 32.1429 30.2834V42.1809L31.4401 43.9378C30.9644 43.0906 30.2718 42.3852 29.4335 41.894C28.5951 41.4029 27.6412 41.1436 26.6696 41.1428H17.0447C16.0731 41.1436 15.1192 41.4029 14.2808 41.894C13.4425 42.3852 12.7499 43.0906 12.2743 43.9378L11.5715 42.1809V30.2834C11.5702 29.8187 11.6611 29.3583 11.839 28.929C12.0168 28.4997 12.2781 28.1099 12.6076 27.7822ZM2.57146 16.9746C2.57141 16.7716 2.61138 16.5705 2.68906 16.3829C2.76674 16.1953 2.88062 16.0249 3.0242 15.8813C3.16777 15.7377 3.33822 15.6238 3.52582 15.5462C3.71342 15.4685 3.91448 15.4285 4.11753 15.4286C4.47897 15.4292 4.82892 15.5557 5.10721 15.7863L10.6462 20.4025C10.9362 20.6434 11.1695 20.9454 11.3295 21.2868C11.4894 21.6283 11.572 22.0008 11.5715 22.3778V25.3001C11.3012 25.4928 11.0471 25.7073 10.8118 25.9414L10.7893 25.9639C10.6662 26.0871 10.5501 26.2155 10.4389 26.347L7.71431 22.7142V20.5714C7.71431 20.2304 7.57885 19.9034 7.33773 19.6623C7.09662 19.4212 6.76959 19.2857 6.4286 19.2857C6.08761 19.2857 5.76058 19.4212 5.51946 19.6623C5.27834 19.9034 5.14288 20.2304 5.14288 20.5714V23.1428C5.14288 23.421 5.23311 23.6917 5.40003 23.9143L9.15383 28.9194C9.05187 29.3669 9.00028 29.8244 9.00002 30.2834V36.4911L7.67285 35.8275C7.29813 35.6416 6.98296 35.3545 6.76305 34.9987C6.54315 34.6429 6.42728 34.2326 6.4286 33.8143V28.2857C6.4286 28.1169 6.39535 27.9497 6.33074 27.7937C6.26613 27.6377 6.17143 27.4959 6.05204 27.3765L3.88931 25.2133C3.47021 24.7966 3.13794 24.3009 2.91173 23.7548C2.68552 23.2088 2.56986 22.6233 2.57146 22.0323V16.9746Z" fill="black"/>
<path d="M52.7143 43.7143V42.4286H54V39.8571H52.7143V38.5714H50.1429V39.8571H48.8572V42.4286H50.1429V43.7143H52.7143Z" fill="black"/>
<path d="M45 51.4285H47.5714V54H45V51.4285Z" fill="black"/>
<path d="M45 56.5714H47.5714V61.7143H45V56.5714Z" fill="black"/>
</svg>
