<svg width="46" height="57" viewBox="0 0 46 57" fill="none" xmlns="http://www.w3.org/2000/svg">
<path d="M39.4007 44.7924C42.0924 43.2225 44.4531 40.4755 44.6018 37.0793C44.663 35.6802 44.6132 34.447 44.245 32.9273C44.1198 32.4111 43.4136 32.3394 43.1881 32.8203C42.6311 34.0083 42.0059 35.1592 41.2462 36.2332C40.1928 37.7226 38.7665 39.0116 37.0312 39.5741L39.4007 44.7924Z" fill="#DC8758"/>
<path d="M44.6024 37.0795C44.4537 40.4753 42.0927 43.2227 39.4014 44.7924L38.6738 43.1909C40.8137 41.5684 42.5066 39.1688 42.6321 36.308C42.6673 35.5188 42.6662 34.7834 42.5925 34.0195C42.8006 33.6254 42.9986 33.2259 43.1881 32.8208C43.4137 32.3398 44.1204 32.4113 44.2459 32.9275C44.6134 34.4466 44.6629 35.6804 44.6024 37.0795Z" fill="#C86D36"/>
<path d="M14.6103 41.0092C13.9084 40.1904 13.0338 39.3286 12.1322 38.7371C9.08908 36.7402 6.5054 38.7941 5.54464 41.8758C4.70616 44.5654 4.30953 48.063 5.30569 50.8318H4.11414H3.77275C2.28965 50.8318 1.0874 52.034 1.0874 53.5171V54.6198C1.0874 55.1785 1.54038 55.6315 2.09911 55.6315H6.90854H8.69443H18.9206L14.6103 41.0092Z" fill="#E2E2E2"/>
<path d="M31.3903 41.0092C32.0922 40.1904 32.9668 39.3286 33.8684 38.7371C36.9115 36.7402 39.4952 38.7941 40.456 41.8758C41.2945 44.5654 41.6911 48.063 40.6949 50.8318H41.8866H42.228C43.7111 50.8318 44.9133 52.034 44.9133 53.5171V54.6198C44.9133 55.1785 44.4603 55.6315 43.9016 55.6315H39.0922H37.3063H27.0801L31.3903 41.0092Z" fill="#E2E2E2"/>
<path d="M40.7235 50.7485C40.5198 50.6913 40.3064 50.6615 40.0873 50.6615H39.0291C38.7975 50.6615 38.634 50.438 38.7009 50.2162C39.5067 47.5417 39.1093 44.4228 38.315 41.8754C37.7482 40.0581 36.6166 38.5974 35.1592 38.1164C37.6271 37.3569 39.6348 39.2413 40.456 41.8754C41.286 44.5393 41.6833 47.9934 40.7235 50.7485Z" fill="#BFBFBF"/>
<path d="M44.9136 53.5169V54.6198C44.9136 55.179 44.4601 55.6314 43.9021 55.6314H41.76C42.3192 55.6314 42.7727 55.179 42.7727 54.6198V53.5169C42.7727 52.3457 42.0209 51.2427 40.9741 50.8322H42.2279C43.7116 50.8322 44.9136 52.0342 44.9136 53.5169Z" fill="#BFBFBF"/>
<path d="M34.9591 50.8319H34.6172H33.5543C34.181 48.3213 34.3935 45.7889 34.4585 44.0386C34.5334 42.0226 34.3425 40.0007 33.8467 38.0798C31.8686 30.4139 26.6113 28.8427 26.6113 28.8427H19.3895C19.3895 28.8427 14.1322 30.4139 12.1541 38.0798C11.6585 40.0007 11.4676 42.0226 11.5423 44.0386C11.6073 45.7889 11.8198 48.3214 12.4465 50.8319H11.3837H11.0417C9.55896 50.8319 8.35693 52.0339 8.35693 53.5167V55.6316H37.6439V53.5167C37.6439 52.0338 36.4419 50.8319 34.9591 50.8319Z" fill="#F8F6F6"/>
<path d="M34.4572 44.0384C34.3933 45.749 34.1897 48.207 33.5953 50.6615C33.2574 50.4667 32.8864 50.3522 32.499 50.3522H32.2483C31.6659 50.3522 31.2294 49.8143 31.3545 49.2455C31.7982 47.2282 32.0025 45.5241 32.0576 44.0383C32.1325 42.0228 31.9421 40.0007 31.4468 38.08C29.4688 30.4133 24.2104 28.8425 24.2104 28.8425H26.6101C26.6101 28.8425 31.8683 30.4133 33.8464 38.08C34.3415 40.0009 34.5319 42.0229 34.4572 44.0384Z" fill="#EBEBEB"/>
<path d="M37.6432 53.5169V55.6314H35.2435V53.5169C35.2435 52.5229 34.6766 51.4387 33.8555 50.8322H34.9584C36.4411 50.8322 37.6432 52.0342 37.6432 53.5169Z" fill="#EBEBEB"/>
<path d="M31.7431 33.1862C30.4861 33.7608 29.1773 34.2263 27.8366 34.5632C26.2658 34.9595 24.6521 35.1774 23.0384 35.1818C21.5513 35.1851 19.8661 34.9605 18.4164 34.6105C17.3531 34.354 16.3096 34.0194 15.2914 33.6188C15.211 33.5869 14.7433 33.4162 14.2402 33.2126C15.5325 31.2303 17.0042 30.0943 18.0422 29.4811C21.3136 30.147 24.6862 30.147 27.9576 29.4811C28.9913 30.092 30.4541 31.2202 31.7431 33.1862Z" fill="#82AEE3"/>
<path d="M31.7438 33.1862C31.1142 33.4734 30.4713 33.7343 29.8186 33.9644C28.6133 31.8378 27.1702 30.5455 26.0508 29.7915C26.6892 29.7133 27.3255 29.6099 27.9584 29.4811C27.9904 29.4998 28.0223 29.5185 28.0541 29.5383C28.2203 29.6384 28.3965 29.753 28.5814 29.8818C28.8715 30.0838 29.1515 30.3003 29.4206 30.5291C30.0242 31.0426 30.5734 31.6237 31.067 32.2461C31.1936 32.4057 31.319 32.572 31.4423 32.7459C31.5184 32.8532 31.591 32.9572 31.6636 33.0662C31.6899 33.1058 31.7162 33.1455 31.7438 33.1862Z" fill="#528FD8"/>
<path d="M14.2263 1.62229C13.6759 1.22389 12.9753 0.979868 12.093 0.959028C9.60065 0.900145 6.91618 3.40267 5.62208 5.3383C2.69271 9.72012 0.584396 14.8641 0.846172 20.1285C0.905165 21.3145 1.09229 22.521 1.65068 23.569C2.20908 24.6169 3.18925 25.4912 4.36084 25.6849C5.03259 25.7959 5.72529 25.6809 6.37212 25.4683C8.10542 24.8985 9.55246 23.6439 10.6344 22.1747C13.4809 18.3096 15.1522 12.8794 15.881 8.23922C16.2284 6.02737 16.0711 2.95774 14.2263 1.62229Z" fill="#AC5E2E"/>
<path d="M31.7733 1.62229C32.3237 1.22389 33.0243 0.979868 33.9066 0.959028C36.3989 0.900145 39.0834 3.40267 40.3775 5.3383C43.3069 9.72012 45.4153 14.8641 45.1534 20.1285C45.0944 21.3145 44.9073 22.521 44.3489 23.569C43.7905 24.6169 42.8103 25.4912 41.6387 25.6849C40.967 25.7959 40.2743 25.6809 39.6275 25.4683C37.8942 24.8985 36.4471 23.6439 35.3652 22.1747C32.5187 18.3096 30.8474 12.8794 30.1185 8.23922C29.7712 6.02737 29.9284 2.95774 31.7733 1.62229Z" fill="#AC5E2E"/>
<path d="M45.1534 20.1281C45.094 21.3147 44.9068 22.5211 44.3488 23.569C43.7896 24.6169 42.81 25.4908 41.6387 25.6846C41.0212 25.7869 40.3861 25.6989 39.785 25.5173C40.6843 25.1716 41.4273 24.4286 41.8853 23.569C42.4433 22.5211 42.6305 21.3147 42.6899 20.1281C42.9519 14.8644 40.8428 9.7206 37.9138 5.33856C36.8416 3.73593 34.8196 1.74571 32.7402 1.14145C33.088 1.0325 33.4755 0.969761 33.906 0.958735C36.398 0.900403 39.0827 3.40237 40.3773 5.33856C43.3064 9.7206 45.4143 14.8644 45.1534 20.1281Z" fill="#9E5528"/>
<path d="M32.3939 5.3146C30.4126 2.84604 26.2996 0.713469 22.9995 0.829911C19.6994 0.713359 15.5862 2.84604 13.605 5.3146C9.84487 9.99932 7.46221 17.5341 9.54483 23.3763C11.5021 28.8665 17.3516 31.8692 22.9995 31.6968C28.6474 31.8692 34.4968 28.8665 36.4541 23.3763C38.5368 17.5341 36.1541 9.99932 32.3939 5.3146Z" fill="#F8F6F6"/>
<path d="M36.4545 23.3763C34.4974 28.8669 28.648 31.8697 23.0001 31.6969C22.6005 31.709 22.1999 31.7057 21.8003 31.6848C27.0563 31.4316 32.2365 28.4783 34.0549 23.3763C36.1375 17.5336 33.7555 9.99899 29.9954 5.31427C28.2485 3.13814 24.8439 1.2228 21.8003 0.880526C22.2087 0.834324 22.6093 0.815578 23.0001 0.829913C26.3001 0.71325 30.4136 2.84649 32.3949 5.31438C36.155 9.99899 38.5371 17.5336 36.4545 23.3763Z" fill="#EBEBEB"/>
<path d="M19.001 16.6367C16.7882 19.6591 12.7648 22.0463 9.15436 22.0463C7.82585 16.429 10.1259 9.65092 13.6062 5.31453C15.3536 3.13862 18.7571 1.2225 21.799 0.879242C21.8106 1.09349 21.8248 1.30774 21.8329 1.5221C22.0723 7.81386 22.2436 12.2091 19.001 16.6367Z" fill="#DC8758"/>
<path d="M18.9994 16.6366C16.7869 19.6592 12.7636 22.0467 9.15326 22.0467C9.05424 21.6296 8.97606 21.2057 8.91553 20.7765C12.078 20.2272 15.3119 18.1017 17.2129 15.5061C20.3105 11.277 20.2928 7.07659 20.0759 1.22502C20.6538 1.06105 21.2318 0.943178 21.7975 0.879333C21.8097 1.09292 21.824 1.3075 21.8316 1.52219C22.0716 7.81406 22.2421 12.2093 18.9994 16.6366Z" fill="#C86D36"/>
<path d="M31.7971 29.23C31.8568 29.3183 29.4687 30.4881 29.2485 30.5776C28.3494 30.9432 27.4144 31.2206 26.4624 31.4089C23.8433 31.9269 21.0464 31.8591 18.4786 31.1602C18.1089 31.0597 14.0477 29.459 14.2036 29.2299C14.715 28.4788 15.1595 27.6649 15.5722 26.8756C16.3765 25.3403 17.169 23.7255 18.3977 22.4777C18.9866 21.8792 19.6773 21.3827 20.4678 21.0898C22.4286 20.361 25.1637 20.552 26.8582 21.8209C28.5303 23.0718 29.4843 25.0718 30.4285 26.8756C30.8411 27.665 31.2857 28.4789 31.7971 29.23Z" fill="#DC8758"/>
<path d="M31.7972 29.2301C31.3546 29.5262 30.8934 29.797 30.4168 30.0414C30.3618 30.07 30.3068 30.0975 30.2506 30.1251C29.9878 30.254 29.7302 30.3811 29.4591 30.4894C29.2292 30.5812 29.0035 30.6745 28.7723 30.7613C28.2079 30.9729 27.6289 31.1399 27.0453 31.282C26.7942 31.3431 26.5414 31.3952 26.288 31.4416C26.0073 31.4929 25.7284 31.5374 25.4458 31.5748C25.0412 31.6283 24.6449 31.6619 24.2361 31.6837C23.8245 31.7058 23.4116 31.7091 23 31.6969C22.736 31.7047 22.4631 31.7041 22.2042 31.7002C22.1304 31.6991 22.0578 31.6969 21.9852 31.6936C21.9236 31.6914 21.8619 31.6881 21.8003 31.6848C25.1983 31.5208 28.5654 30.2285 31.0124 27.9554C31.2578 28.3891 31.5175 28.8196 31.7972 29.2301Z" fill="#C86D36"/>
<path d="M23.0002 22.0462C24.3255 22.0462 25.3999 21.2247 25.3999 20.2113C25.3999 19.198 24.3255 18.3765 23.0002 18.3765C21.6749 18.3765 20.6006 19.198 20.6006 20.2113C20.6006 21.2247 21.6749 22.0462 23.0002 22.0462Z" fill="#5A5A5A"/>
<path d="M25.4001 20.2118C25.4001 21.2245 24.3258 22.0467 23.0005 22.0467C22.0539 22.0467 21.2349 21.6274 20.8452 21.0186C20.9961 21.0418 21.1523 21.0538 21.312 21.0538C22.6373 21.0538 23.7116 20.2326 23.7116 19.2188C23.7116 18.9294 23.6235 18.6563 23.4673 18.412C24.5691 18.5783 25.4001 19.3202 25.4001 20.2118Z" fill="#444444"/>
<path d="M25.7036 24.3711C25.2476 24.3711 24.878 24.7407 24.878 25.1966V25.8333C24.878 26.117 24.6472 26.3478 24.3635 26.3478C24.0798 26.3478 23.8489 26.117 23.8489 25.8333C23.8489 25.8333 23.8489 25.1967 23.8489 25.1966C23.8489 24.4829 22.9209 24.1176 22.4118 24.5935C22.2457 24.7487 22.1499 24.9694 22.1499 25.1967V25.8334C22.1499 26.1172 21.9191 26.3479 21.6354 26.3479C21.3517 26.3479 21.1209 26.1172 21.1209 25.8334V25.1967C21.1209 24.7408 20.7513 24.3712 20.2953 24.3712C19.8393 24.3712 19.4697 24.7408 19.4697 25.1967V25.8334C19.4697 27.0275 20.4412 27.999 21.6354 27.999C22.1521 27.999 22.6267 27.8165 22.9994 27.5134C23.3721 27.8165 23.8467 27.999 24.3634 27.999C25.5576 27.999 26.5289 27.0275 26.5289 25.8334V25.1967C26.5292 24.7407 26.1596 24.3711 25.7036 24.3711Z" fill="black"/>
<path d="M17.5813 14.1028V12.5833C17.5813 12.1273 17.2117 11.7577 16.7557 11.7577C16.2998 11.7577 15.9302 12.1273 15.9302 12.5833V14.1028C15.9302 14.5587 16.2998 14.9283 16.7557 14.9283C17.2117 14.9283 17.5813 14.5587 17.5813 14.1028Z" fill="black"/>
<path d="M29.244 11.7577C28.7881 11.7577 28.4185 12.1273 28.4185 12.5833V14.1028C28.4185 14.5587 28.7881 14.9283 29.244 14.9283C29.7 14.9283 30.0696 14.5587 30.0696 14.1028V12.5833C30.0695 12.1273 29.7 11.7577 29.244 11.7577Z" fill="black"/>
<path d="M36.7483 24.8111C37.5679 25.4624 38.4498 25.9501 39.3695 26.2524C39.9781 26.4526 40.5585 26.553 41.1035 26.553C41.3331 26.553 41.5568 26.5352 41.7731 26.4993C43.1118 26.2781 44.347 25.3277 45.0773 23.9571C45.6132 22.9513 45.8992 21.7478 45.9776 20.1695C46.218 15.3353 44.5188 10.0481 41.0635 4.8795C40.81 4.50051 40.2973 4.39874 39.9184 4.65202C39.5394 4.90542 39.4375 5.41805 39.6908 5.79715C42.9476 10.6687 44.5512 15.6102 44.3285 20.0875C44.2625 21.4143 44.0375 22.3972 43.6201 23.1807C43.13 24.1007 42.3388 24.7324 41.5039 24.8704C41.0392 24.9471 40.4947 24.8844 39.8851 24.684C38.8987 24.3597 38.0648 23.8011 37.3858 23.1909C38.2651 20.3993 38.2782 17.1343 37.4162 13.71C36.5985 10.4616 35.0438 7.29657 33.0383 4.79791C32.5905 4.23995 32.0559 3.71045 31.4619 3.21998C31.6689 2.84705 31.9299 2.52794 32.257 2.29108C32.6997 1.97065 33.2612 1.80006 33.9257 1.7844C35.1756 1.75606 36.4399 2.54018 37.2815 3.20432C37.6394 3.4866 38.1585 3.42552 38.441 3.06759C38.7234 2.70966 38.6621 2.19052 38.3042 1.90812C36.7917 0.714808 35.2635 0.100838 33.8869 0.133808C32.8818 0.157516 32.0078 0.433405 31.2891 0.953648C30.7961 1.31047 30.4128 1.75121 30.1143 2.23871C27.907 0.82265 25.2328 -0.0666581 23.0001 0.00391314C20.7685 -0.0666581 18.0925 0.823422 15.884 2.24025C15.5676 1.72089 15.1766 1.2904 14.7111 0.953537C13.9923 0.433295 13.1183 0.157516 12.1133 0.133698C9.40428 0.068971 6.49465 2.54889 4.93657 4.8795C1.48134 10.048 -0.217997 15.3352 0.0223864 20.1695C0.100897 21.7481 0.387041 22.9517 0.922832 23.9572C1.65313 25.3277 2.88824 26.2781 4.22689 26.4994C4.44345 26.5352 4.66686 26.5531 4.89665 26.5531C5.44149 26.5531 6.02216 26.4527 6.63061 26.2527C7.55024 25.9503 8.43238 25.4633 9.25222 24.8124C10.3402 27.0883 12.1231 28.9952 14.471 30.3724C14.6914 30.5016 14.9162 30.623 15.1429 30.7407C13.7646 32.1713 12.3486 34.3097 11.4657 37.4616C10.168 36.9488 9.08296 37.1005 8.34141 37.3661C6.72732 37.9442 5.42043 39.4986 4.75584 41.6304C3.56506 45.4499 3.82739 48.3412 4.20881 50.0065H3.77215C1.83618 50.0065 0.261226 51.5815 0.261226 53.5174V54.6201C0.261226 55.6332 1.08537 56.4574 2.0985 56.4574H43.9017C44.9149 56.4574 45.739 55.6332 45.739 54.6201V53.5174C45.739 51.5815 44.1639 50.0065 42.2281 50.0065H41.7913C42.0873 48.7144 42.311 46.6838 41.8404 44.0547C44.01 42.1578 45.3141 39.6835 45.4266 37.1157C45.4809 35.8762 45.4725 34.4873 45.0473 32.7331C44.9066 32.1524 44.4312 31.7386 43.8364 31.6787C43.2419 31.6193 42.694 31.9295 42.4406 32.4701C41.8368 33.7578 41.2256 34.8329 40.5722 35.7569C40.1071 36.4145 39.4439 37.1941 38.5899 37.8307C38.2934 37.6392 37.9826 37.4821 37.6586 37.366C36.9173 37.1005 35.8322 36.9487 34.5343 37.4615C33.6517 34.3106 32.2363 32.1721 30.8584 30.7414C31.0844 30.6244 31.3082 30.5018 31.5291 30.3723C33.8773 28.9949 35.6604 27.0875 36.7483 24.8111ZM8.61411 23.1903C7.93519 23.8008 7.10179 24.3596 6.115 24.684C5.50533 24.8845 4.96072 24.9469 4.49627 24.8704C3.66133 24.7323 2.87027 24.1007 2.38013 23.1807C1.96276 22.3975 1.7376 21.4146 1.67155 20.0875C1.44892 15.6101 3.05254 10.6686 6.30929 5.79715C7.6185 3.8388 10.0491 1.78352 12.009 1.78352C12.0307 1.78352 12.0527 1.78374 12.0744 1.78429C12.7389 1.79995 13.3003 1.97043 13.7431 2.29097C14.0703 2.52783 14.3325 2.84595 14.5396 3.21898C13.9449 3.70979 13.4099 4.23962 12.9617 4.79791C10.9563 7.29646 9.40153 10.4616 8.58389 13.71C7.72193 17.1341 7.73494 20.3989 8.61411 23.1903ZM9.81404 21.1606C9.75372 20.8213 9.70708 20.4752 9.67201 20.1237C9.67168 20.1239 9.67124 20.1241 9.6708 20.1244C9.4839 18.2569 9.6536 16.2244 10.185 14.1129C10.9459 11.0899 12.3893 8.14872 14.2493 5.83133C15.768 3.93925 18.5139 2.37709 21.0184 1.84615C21.2501 7.9477 21.3589 12.0192 18.3344 16.149C16.3316 18.8846 12.8473 20.9219 9.81977 21.1905C9.8179 21.1805 9.8158 21.1707 9.81404 21.1606ZM41.9202 36.7101C42.5083 35.8787 43.0614 34.9422 43.6006 33.8632C43.808 34.9983 43.8239 35.9762 43.7771 37.0433C43.6963 38.8907 42.8451 40.6932 41.4089 42.1871C41.3572 42.0035 41.303 41.8184 41.2444 41.6303C40.9177 40.5824 40.4351 39.675 39.8378 38.9536C40.7299 38.2369 41.4228 37.4135 41.9202 36.7101ZM34.9184 39.092C35.684 38.7335 36.4164 38.6746 37.1018 38.9203C38.2072 39.3162 39.1665 40.5129 39.668 42.1215C40.6225 45.1831 40.716 48.3347 39.9181 50.5523C39.8271 50.8053 39.865 51.0867 40.0195 51.3066C40.1741 51.5265 40.4261 51.6573 40.6949 51.6573H42.228C43.2535 51.6573 44.0877 52.4916 44.0877 53.5171V54.6198C44.0877 54.7224 44.0043 54.8059 43.9016 54.8059H38.4691V53.5165C38.4691 51.5809 36.8943 50.0062 34.9587 50.0062H34.5892C35.0586 47.7537 35.2271 45.579 35.2831 44.069C35.3468 42.3517 35.2238 40.6832 34.9184 39.092ZM31.413 34.2312C32.0429 35.3109 32.6239 36.6464 33.047 38.2859C33.5102 40.0809 33.7074 42.006 33.633 44.008C33.5714 45.668 33.3688 48.1647 32.753 50.6318C32.6914 50.8784 32.7468 51.1396 32.9033 51.34C33.0598 51.5403 33.2998 51.6573 33.554 51.6573H34.9588C35.984 51.6573 36.818 52.4914 36.818 53.5165V54.8059H35.5419H28.6252V46.7886C28.6252 46.3326 28.2556 45.963 27.7997 45.963C27.3437 45.963 26.9741 46.3326 26.9741 46.7886V54.8059H19.0259V46.7886C19.0259 46.3326 18.6563 45.963 18.2003 45.963C17.7444 45.963 17.3748 46.3326 17.3748 46.7886V54.8059H9.99311H9.18198V53.5165C9.18198 52.4914 10.016 51.6573 11.0413 51.6573H12.4461C12.7003 51.6573 12.9402 51.5402 13.0967 51.34C13.2532 51.1397 13.3086 50.8784 13.2471 50.6318C12.9086 49.2761 12.66 47.7734 12.5082 46.1654C12.4653 45.7115 12.0616 45.3786 11.6088 45.4211C11.1548 45.4639 10.8216 45.8667 10.8644 46.3206C10.9868 47.6178 11.17 48.8528 11.4107 50.0063H11.0413C9.10568 50.0063 7.53095 51.581 7.53095 53.5167V54.806H2.09839C1.99573 54.806 1.91226 54.7225 1.91226 54.6199V53.5172C1.91226 52.4917 2.74655 51.6574 3.77204 51.6574H5.30498C5.57381 51.6574 5.82577 51.5265 5.98036 51.3067C6.13496 51.0868 6.17278 50.8054 6.08181 50.5524C5.28402 48.3351 5.37764 45.1833 6.33212 42.1216C6.83362 40.513 7.79283 39.3163 8.89816 38.9204C9.58402 38.6746 10.3165 38.7337 11.0824 39.0928C10.8815 40.1422 10.7579 41.2289 10.7166 42.3387C10.6996 42.7943 11.0552 43.1774 11.5108 43.1944C11.9692 43.2139 12.3495 42.8557 12.3665 42.4001C12.4197 40.9726 12.6169 39.5884 12.953 38.2862C13.3757 36.6481 13.956 35.3137 14.5855 34.2346C15.7787 34.6892 16.9786 35.1128 18.2227 35.4133C19.7887 35.7915 21.5301 36.0076 23.007 36.0076H23.0407C24.6816 36.0032 26.3631 35.7865 28.0377 35.3642C29.1728 35.0788 30.3048 34.6977 31.413 34.2312ZM23.0001 22.8718C23.9674 22.8718 24.8361 22.5181 25.4277 21.9598C25.7722 22.1025 26.0889 22.2764 26.3633 22.4821C27.0891 23.0251 27.6659 23.7381 28.1598 24.4922C29.1096 25.9428 29.7498 27.488 30.6504 28.9723C30.7118 29.0735 28.1546 30.0911 27.9168 30.1646C26.3509 30.6494 24.6566 30.8652 23.0253 30.8869C21.6969 30.9046 20.3761 30.7785 19.0686 30.459C17.7677 30.1413 16.5077 29.6457 15.3495 28.9722C15.6992 28.3972 16.0122 27.815 16.3031 27.2586C17.0687 25.7943 17.8112 24.2495 18.9857 23.0567C19.4789 22.5555 20.0063 22.1828 20.5562 21.9445C21.1483 22.5117 22.0239 22.8718 23.0001 22.8718ZM21.426 20.2113C21.426 19.6737 22.1616 19.2019 23.0001 19.2019C23.8385 19.2019 24.5741 19.6737 24.5741 20.2113C24.5741 20.749 23.8385 21.2206 23.0001 21.2206C22.1616 21.2207 21.426 20.749 21.426 20.2113ZM30.4733 32.8342C29.5385 33.2122 28.5874 33.5234 27.6348 33.7628C26.0898 34.1525 24.5426 34.3522 23.0368 34.3562C23.0264 34.3562 23.0164 34.3562 23.0061 34.3562C21.6549 34.3562 20.0547 34.1568 18.6101 33.8079C17.6103 33.5667 16.5955 33.2446 15.5964 32.8514C15.5836 32.8463 15.5615 32.838 15.5323 32.8268C15.9561 32.2799 16.3779 31.8307 16.768 31.4671C17.4366 31.7213 18.1217 31.9324 18.8176 32.0959C19.6032 32.2803 20.4024 32.4068 21.2067 32.4736C23.919 32.699 26.6857 32.4207 29.2294 31.4648C29.6221 31.8304 30.0468 32.2828 30.4733 32.8342ZM27.3528 21.1603C27.0096 20.9033 26.6225 20.6834 26.206 20.4999C26.2184 20.4051 26.2253 20.3089 26.2253 20.2114C26.2253 18.7444 24.7783 17.5509 23.0001 17.5509C21.2217 17.5509 19.7748 18.7444 19.7748 20.2114C19.7748 20.3017 19.7805 20.3911 19.7912 20.4791C19.0864 20.8019 18.421 21.2768 17.8091 21.8986C16.5895 23.1372 15.7957 24.6605 15.028 26.1338C15.028 26.1338 14.2876 27.5324 13.9754 28.05C12.2668 26.7321 11.0164 25.0446 10.3229 23.0992C10.2889 23.0036 10.2584 22.9058 10.2267 22.8087C13.6711 22.4132 17.4245 20.1868 19.6664 17.1245C23.05 12.5045 22.9026 7.94086 22.6633 1.65219C23.9041 1.63709 25.087 1.80083 26.2671 2.19978C27.5 2.6167 28.6772 3.21843 29.7372 3.97355C30.3102 4.38176 30.8389 4.8268 31.321 5.33822C32.6545 6.75284 33.6773 8.54601 34.479 10.3086C35.0362 11.5334 35.4864 12.808 35.8149 14.1129C36.6449 17.4103 36.5973 20.5175 35.677 23.0991C34.9835 25.0444 33.7332 26.7318 32.0247 28.0497C31.7125 27.532 31.0146 26.2151 30.9417 26.0748C30.0535 24.3652 29.0468 22.4275 27.3528 21.1603Z" fill="black"/>
</svg>
